<svg width="761" height="494" viewBox="0 0 761 494" fill="none" xmlns="http://www.w3.org/2000/svg">
<g id="undraw_Newsletter_re_wrob 1" clip-path="url(#clip0)">
<path id="Polygon 1" d="M460.5 39L678.305 229.5H242.695L460.5 39Z" fill="black" fill-opacity="0.7"/>
<rect id="Rectangle 1" x="239" y="230" width="448" height="262" fill="black" fill-opacity="0.7"/>
<g id="static">
<g id="Vector" filter="url(#filter0_d)">
<path d="M686.553 230.84C686.563 231.089 686.477 231.332 686.313 231.52C686.141 231.722 685.896 231.847 685.631 231.867C685.367 231.888 685.105 231.803 684.904 231.63L681.553 228.74L624.594 179.67L464.834 42.0203C463.922 41.2401 462.762 40.8122 461.562 40.814C460.362 40.8159 459.203 41.2473 458.294 42.0303L243.154 228.94L241.214 230.62C241.139 230.686 241.055 230.74 240.964 230.78C240.804 230.851 240.628 230.879 240.453 230.86C240.204 230.834 239.972 230.716 239.804 230.53C239.717 230.432 239.65 230.317 239.608 230.193C239.565 230.069 239.547 229.938 239.556 229.807C239.564 229.676 239.598 229.548 239.656 229.43C239.714 229.312 239.795 229.207 239.893 229.12L240.163 228.88L456.984 40.5203C458.258 39.426 459.88 38.8227 461.56 38.819C463.239 38.8154 464.865 39.4116 466.143 40.5003L625.953 178.19L686.203 230.11C686.309 230.201 686.394 230.313 686.454 230.439C686.515 230.564 686.548 230.701 686.553 230.84Z" fill="#3F3D56"/>
<path d="M686.553 230.84C686.563 231.089 686.477 231.332 686.313 231.52C686.141 231.722 685.896 231.847 685.631 231.867C685.367 231.888 685.105 231.803 684.904 231.63L681.553 228.74L624.594 179.67L464.834 42.0203C463.922 41.2401 462.762 40.8122 461.562 40.814C460.362 40.8159 459.203 41.2473 458.294 42.0303L243.154 228.94L241.214 230.62C241.139 230.686 241.055 230.74 240.964 230.78C240.804 230.851 240.628 230.879 240.453 230.86C240.204 230.834 239.972 230.716 239.804 230.53C239.717 230.432 239.65 230.317 239.608 230.193C239.565 230.069 239.547 229.938 239.556 229.807C239.564 229.676 239.598 229.548 239.656 229.43C239.714 229.312 239.795 229.207 239.893 229.12L240.163 228.88L456.984 40.5203C458.258 39.426 459.88 38.8227 461.56 38.819C463.239 38.8154 464.865 39.4116 466.143 40.5003L625.953 178.19L686.203 230.11C686.309 230.201 686.394 230.313 686.454 230.439C686.515 230.564 686.548 230.701 686.553 230.84Z" stroke="black"/>
</g>
<path id="Vector_2" d="M19.7777 285.056C19.4945 283.609 19.5319 282.117 19.8876 280.686C20.2432 279.255 20.9083 277.919 21.836 276.773C22.7637 275.626 23.9314 274.697 25.257 274.051C26.5826 273.405 28.0337 273.057 29.5082 273.033L74.4703 219.509L85.6953 233.861L39.8726 283.674C39.7499 286.154 38.7218 288.502 36.9832 290.275C35.2445 292.047 32.9161 293.12 30.4392 293.29C27.9622 293.461 25.5088 292.717 23.5439 291.199C21.5789 289.681 20.2389 287.496 19.7778 285.056H19.7777Z" fill="#FFB8B8"/>
<path id="Vector_3" d="M233.287 219.178C232.972 219.634 232.694 220.113 232.454 220.612L183.36 227.629L175.905 218.165L160.151 227.549L174.96 250.638L234.835 232.988C236.415 234.418 238.393 235.333 240.506 235.612C242.619 235.891 244.767 235.52 246.664 234.548C248.561 233.576 250.117 232.05 251.126 230.173C252.134 228.295 252.547 226.155 252.309 224.037C252.072 221.919 251.195 219.923 249.796 218.316C248.397 216.708 246.541 215.564 244.476 215.037C242.411 214.51 240.235 214.623 238.236 215.363C236.237 216.103 234.511 217.434 233.287 219.178Z" fill="#FFB8B8"/>
<path id="Vector_4" d="M149.426 398.009L158.114 406.659L195.614 377.267L182.792 364.5L149.426 398.009Z" fill="#FFB8B8"/>
<path id="Vector_5" d="M166.836 431.409L139.532 404.222L150.036 393.673L166.791 410.356C168.176 411.735 169.276 413.374 170.028 415.179C170.78 416.983 171.17 418.918 171.174 420.873C171.178 422.828 170.797 424.765 170.053 426.573C169.309 428.38 168.216 430.024 166.836 431.409L166.836 431.409Z" fill="#2F2E41"/>
<path id="Vector_6" d="M761.96 229C761.961 248.649 754.546 267.574 741.198 281.992C727.849 296.41 709.551 305.259 689.96 306.77C689.3 306.82 688.63 306.87 687.96 306.9V232.87C687.961 232.13 687.796 231.399 687.478 230.732C687.159 230.064 686.695 229.475 686.12 229.01C686.054 228.942 685.98 228.881 685.9 228.83C685.827 228.771 685.751 228.718 685.67 228.67C684.967 228.218 684.163 227.949 683.329 227.888C682.496 227.827 681.661 227.975 680.9 228.32L680.07 226.5C680.977 226.087 681.963 225.872 682.96 225.87L626 176.8C626.44 176.3 626.9 175.81 627.36 175.32C638.098 164 651.984 156.161 667.224 152.815C682.464 149.469 698.357 150.77 712.85 156.55C727.343 162.33 739.769 172.323 748.524 185.238C757.278 198.153 761.959 213.397 761.96 229Z" fill="#B379E0" fill-opacity="0.6"/>
<path id="Vector_7" d="M103.246 480.98H115.506L121.338 433.692H103.244L103.246 480.98Z" fill="#FFB8B8"/>
<path id="Vector_8" d="M139.15 492.363L100.619 492.364L100.618 477.478L124.262 477.476C126.217 477.476 128.153 477.861 129.959 478.609C131.765 479.357 133.407 480.454 134.789 481.836C136.171 483.219 137.268 484.86 138.016 486.666C138.765 488.472 139.15 490.408 139.15 492.363Z" fill="#2F2E41"/>
<path id="Vector_9" d="M100.581 444.457L86.6164 341.47C84.4309 325.906 85.1091 310.074 88.6176 294.754C91.4832 282.442 95.3545 273.914 100.124 269.407C100.877 268.701 101.841 268.261 102.867 268.154L148.974 263.352C149.862 263.261 150.758 263.424 151.556 263.823C152.355 264.223 153.023 264.841 153.484 265.605L155 268.131C155.184 268.438 155.332 268.764 155.442 269.105L165.19 299.325C165.336 299.781 165.57 300.204 165.881 300.569C166.191 300.934 166.571 301.234 166.999 301.451C182.347 309.287 232.202 335.739 229.349 347.151C226.668 357.874 201.569 375.261 193.941 380.334C193.164 380.853 192.249 381.127 191.315 381.12C190.38 381.113 189.47 380.825 188.701 380.294L176.038 371.63C175.419 371.207 174.911 370.642 174.556 369.982C174.201 369.323 174.009 368.588 173.996 367.839C173.983 367.09 174.149 366.349 174.481 365.677C174.813 365.005 175.301 364.423 175.904 363.979L184.637 357.544C185.171 357.15 185.588 356.618 185.842 356.005C186.097 355.392 186.179 354.721 186.081 354.064C185.983 353.408 185.707 352.79 185.284 352.279C184.861 351.767 184.306 351.381 183.68 351.161L136.781 334.705C136.255 334.52 135.693 334.458 135.139 334.525C134.584 334.591 134.053 334.784 133.585 335.088C133.117 335.392 132.725 335.799 132.439 336.278C132.153 336.757 131.98 337.296 131.935 337.852L123.288 443.539C123.192 444.673 122.69 445.733 121.873 446.524C121.056 447.315 119.98 447.784 118.845 447.843L105.465 448.513C105.384 448.517 105.303 448.519 105.222 448.519C104.087 448.523 102.989 448.113 102.134 447.365C101.28 446.617 100.727 445.583 100.581 444.457Z" fill="#2F2E41"/>
<path id="Vector_10" d="M98.7538 265.2L80.6746 199.235L80.9842 199.026C81.3725 198.765 120.341 173.033 165.965 193.769L166.792 194.244L156.079 262.711C155.845 264.273 155.074 265.705 153.897 266.76C152.721 267.814 151.213 268.425 149.635 268.487L105.552 270.183C105.463 270.186 105.374 270.188 105.286 270.188C103.8 270.192 102.355 269.705 101.173 268.803C99.9923 267.901 99.1418 266.634 98.7538 265.2Z" fill="#CCCCCC"/>
<path id="Vector_11" d="M79.9866 242.179L64.9294 224.864C64.2042 224.032 63.7958 222.971 63.7764 221.867C63.7569 220.764 64.1275 219.689 64.823 218.832L80.5636 199.387L92.647 202.683L99.0532 225.104L87.3726 241.791C86.9651 242.377 86.4289 242.861 85.805 243.207C85.1811 243.553 84.4862 243.751 83.7737 243.786C83.6894 243.791 83.6057 243.793 83.5219 243.793C82.8512 243.794 82.1882 243.65 81.5781 243.372C80.968 243.094 80.4251 242.687 79.9866 242.179Z" fill="#CCCCCC"/>
<path id="Vector_12" d="M163.252 238.572C162.539 238.537 161.844 238.339 161.22 237.993C160.596 237.647 160.06 237.163 159.653 236.577L147.972 219.89L153.59 196.288L164.716 193.253L166.792 194.244L182.202 213.618C182.898 214.475 183.268 215.549 183.249 216.653C183.229 217.757 182.821 218.818 182.096 219.65L167.039 236.965C166.6 237.472 166.057 237.879 165.447 238.158C164.837 238.436 164.174 238.58 163.503 238.578C163.42 238.578 163.336 238.576 163.252 238.572Z" fill="#CCCCCC"/>
<path id="Vector_13" d="M175.526 493.87H62.526C62.2608 493.87 62.0064 493.765 61.8188 493.577C61.6313 493.39 61.526 493.135 61.526 492.87C61.526 492.605 61.6313 492.351 61.8188 492.163C62.0064 491.976 62.2608 491.87 62.526 491.87H175.526C175.791 491.87 176.046 491.976 176.233 492.163C176.421 492.351 176.526 492.605 176.526 492.87C176.526 493.135 176.421 493.39 176.233 493.577C176.046 493.765 175.791 493.87 175.526 493.87Z" fill="#3F3D56"/>
</g>
<g id="Head">
<path id="Vector_14" d="M121.726 178.085C135.291 178.085 146.287 167.088 146.287 153.524C146.287 139.959 135.291 128.963 121.726 128.963C108.162 128.963 97.1653 139.959 97.1653 153.524C97.1653 167.088 108.162 178.085 121.726 178.085Z" fill="#FFB8B8"/>
<path id="Vector_15" d="M112.388 171.486C110.543 170.549 109.009 169.099 107.971 167.309C106.934 165.519 106.438 163.467 106.542 161.4C106.647 159.334 107.348 157.343 108.561 155.667C109.775 153.991 111.447 152.703 113.377 151.958C120.789 149.098 129.098 154.935 136.867 153.275C144.61 151.621 149.089 142.364 147.241 134.665C145.393 126.965 138.666 121.166 131.248 118.397C126.403 116.592 121.215 115.901 116.067 116.372C110.919 116.844 105.943 118.468 101.507 121.123C97.1166 123.856 93.4603 127.619 90.8558 132.087C88.2513 136.554 86.7774 141.59 86.5621 146.757C86.4612 151.928 87.7247 157.034 90.2252 161.562C92.7257 166.09 96.375 169.879 100.806 172.547C102.78 173.685 105.079 174.599 107.299 174.087C109.123 173.495 110.84 172.617 112.388 171.486Z" fill="#2F2E41"/>
<path id="Vector_16" d="M104.428 120.524C97.8929 111.856 89.0707 104.735 78.8048 101.204C68.5389 97.6733 56.8076 97.9567 47.1661 102.946C37.5246 107.936 30.3343 117.845 29.5838 128.675C28.3347 146.7 43.7363 162.021 45.3169 180.02C45.8179 185.725 44.8919 191.465 42.6223 196.723C40.3528 201.981 36.8109 206.592 32.3158 210.14C27.8207 213.689 22.5135 216.063 16.8722 217.05C11.2309 218.037 5.43278 217.605 0 215.793C3.86954 218.978 8.35596 221.329 13.1774 222.697C17.9989 224.066 23.0512 224.422 28.0171 223.744C32.9748 223 37.7048 221.162 41.864 218.364C46.0233 215.565 49.5076 211.876 52.0643 207.563C55.5306 201.541 56.9539 194.545 57.5068 187.618C58.3751 176.666 57.1992 165.647 54.0391 155.125C52.3115 149.384 49.9687 143.476 51.0642 137.581C51.6887 134.515 53.2002 131.7 55.411 129.486C57.6219 127.272 60.4346 125.756 63.4996 125.128C68.453 124.199 73.5174 125.711 78.247 127.451C82.9767 129.191 87.7453 131.204 92.7835 131.319C97.8217 131.435 103.309 129.128 105.256 124.48L104.428 120.524Z" fill="#2F2E41"/>
</g>
<g id="File">
<path id="Vector_17" d="M565.377 260.366L562.746 253.126L553.686 228.126L534.166 174.296L512.346 114.126L472.996 5.59553C472.224 3.47911 470.644 1.75513 468.603 0.801115C466.562 -0.152895 464.226 -0.259178 462.106 0.505537L234.596 82.9955C232.479 83.7674 230.755 85.3472 229.801 87.3885C228.847 89.4299 228.741 91.7663 229.507 93.8855L285.297 247.746L286.246 250.376L344.806 276.916L361.266 284.376L363.936 285.586L433.627 317.176L436.326 316.196L482.036 299.626L550.987 274.626L560.277 271.256C562.395 270.484 564.121 268.905 565.077 266.864C566.032 264.823 566.14 262.486 565.377 260.366Z" fill="#3C3D41"/>
<path id="Vector_18" d="M469.976 132.206C468.841 129.091 466.518 126.553 463.515 125.149C460.512 123.745 457.074 123.589 453.956 124.716L363.936 157.366L320.467 173.126C318.922 173.684 317.503 174.541 316.29 175.648C315.076 176.755 314.094 178.091 313.397 179.578C312.7 181.065 312.303 182.675 312.229 184.316C312.155 185.957 312.405 187.596 312.965 189.14C313.525 190.684 314.383 192.102 315.492 193.314C316.6 194.526 317.936 195.508 319.424 196.203C320.912 196.898 322.523 197.293 324.163 197.366C325.804 197.438 327.443 197.187 328.987 196.626L363.936 183.956L462.487 148.226C465.601 147.091 468.139 144.767 469.543 141.764C470.947 138.761 471.103 135.323 469.976 132.206Z" fill="white"/>
<path id="Vector_19" d="M485.826 175.926C484.692 172.811 482.368 170.273 479.365 168.869C476.362 167.465 472.924 167.309 469.806 168.436L454.556 173.966L363.936 206.826L336.317 216.836C333.202 217.968 330.664 220.29 329.261 223.292C327.857 226.294 327.703 229.731 328.833 232.847C329.962 235.962 332.282 238.502 335.283 239.908C338.284 241.315 341.72 241.472 344.837 240.346L363.936 233.416L478.337 191.936C478.596 191.846 478.846 191.736 479.096 191.626C482.001 190.351 484.312 188.02 485.562 185.105C486.812 182.189 486.906 178.908 485.826 175.926Z" fill="white"/>
<path id="Vector_20" d="M501.846 220.106C500.714 216.991 498.392 214.454 495.391 213.049C492.389 211.645 488.953 211.489 485.837 212.616L443.067 228.126L409.956 240.136L363.936 256.816L352.337 261.026C349.656 262.002 347.389 263.865 345.91 266.305C344.432 268.745 343.831 271.617 344.206 274.446C344.321 275.287 344.522 276.115 344.806 276.916L361.267 284.376L363.936 283.406H363.956L447.467 253.126L494.356 236.126C497.473 234.993 500.012 232.67 501.417 229.666C502.821 226.662 502.976 223.223 501.847 220.106H501.846Z" fill="white"/>
<path id="Vector_21" d="M408.116 89.2255C406.982 86.1107 404.658 83.5731 401.655 82.1691C398.652 80.765 395.214 80.6091 392.097 81.7355L340.396 100.475C337.282 101.608 334.744 103.93 333.34 106.932C331.937 109.934 331.783 113.371 332.912 116.487C334.041 119.602 336.361 122.142 339.362 123.548C342.363 124.955 345.8 125.112 348.916 123.985L365.277 118.056L376.106 114.126L400.627 105.235C403.741 104.103 406.278 101.781 407.683 98.7794C409.087 95.7779 409.243 92.3419 408.116 89.2255Z" fill="white"/>
<path id="Vector_22" d="M614.436 114.126H372.436C371.009 114.127 369.605 114.488 368.354 115.175C367.102 115.861 366.044 116.852 365.277 118.056C364.399 119.418 363.934 121.005 363.936 122.626V285.586L433.627 317.176L443.447 321.626L458.956 328.656C459.865 329.066 460.85 329.278 461.846 329.278C462.843 329.278 463.828 329.066 464.737 328.656L480.246 321.626L528.786 299.626L574.027 279.116L622.936 256.956V122.626C622.935 120.372 622.039 118.21 620.445 116.617C618.851 115.023 616.69 114.127 614.436 114.126Z" fill="#121314"/>
<path id="Vector_23" d="M564.436 228.126H422.436C419.207 228.127 416.105 229.379 413.778 231.618C411.452 233.857 410.082 236.909 409.956 240.136C409.94 240.298 409.933 240.462 409.936 240.626C409.941 243.939 411.259 247.116 413.603 249.459C415.946 251.802 419.123 253.121 422.436 253.126H564.436C567.751 253.126 570.931 251.809 573.275 249.464C575.619 247.12 576.936 243.941 576.936 240.626C576.936 237.31 575.619 234.131 573.275 231.787C570.931 229.442 567.751 228.126 564.436 228.126Z" fill="white"/>
<path id="Vector_24" d="M572.527 277.605C570.273 275.677 567.403 274.62 564.436 274.626H422.436C419.121 274.626 415.942 275.942 413.598 278.287C411.253 280.631 409.936 283.81 409.936 287.126C409.936 290.441 411.253 293.62 413.598 295.964C415.942 298.309 419.121 299.626 422.436 299.626H528.786L574.027 279.115C573.57 278.571 573.068 278.066 572.527 277.605Z" fill="white"/>
<path id="Vector_25" d="M443.447 321.626L458.956 328.656C459.865 329.066 460.85 329.278 461.846 329.278C462.843 329.278 463.828 329.066 464.737 328.656L480.246 321.626H443.447Z" fill="white"/>
<path id="Vector_26" d="M532.677 174.835C531.796 172.429 530.198 170.351 528.099 168.883C525.999 167.414 523.499 166.626 520.936 166.626H465.936C463.535 166.628 461.185 167.321 459.167 168.623C457.149 169.924 455.549 171.779 454.556 173.965C453.816 175.585 453.434 177.345 453.436 179.126C453.441 182.439 454.759 185.616 457.103 187.959C459.446 190.302 462.623 191.621 465.936 191.626H520.936C522.947 191.626 524.928 191.141 526.712 190.212C528.495 189.283 530.028 187.937 531.181 186.289C532.333 184.641 533.071 182.739 533.331 180.745C533.591 178.752 533.367 176.724 532.677 174.835Z" fill="white"/>
</g>
<path id="Vector_27" d="M523.643 299.63L475.103 321.63L463.614 326.84C462.966 327.132 462.264 327.283 461.554 327.283C460.843 327.283 460.141 327.132 459.493 326.84L448.004 321.63H443.154L458.663 328.66C459.572 329.071 460.557 329.283 461.554 329.283C462.55 329.283 463.535 329.071 464.444 328.66L479.953 321.63L528.493 299.63H523.643ZM523.643 299.63L475.103 321.63L463.614 326.84C462.966 327.132 462.264 327.283 461.554 327.283C460.843 327.283 460.141 327.132 459.493 326.84L448.004 321.63H443.154L458.663 328.66C459.572 329.071 460.557 329.283 461.554 329.283C462.55 329.283 463.535 329.071 464.444 328.66L479.953 321.63L528.493 299.63H523.643ZM523.643 299.63L475.103 321.63L463.614 326.84C462.966 327.132 462.264 327.283 461.554 327.283C460.843 327.283 460.141 327.132 459.493 326.84L448.004 321.63H443.154L458.663 328.66C459.572 329.071 460.557 329.283 461.554 329.283C462.55 329.283 463.535 329.071 464.444 328.66L479.953 321.63L528.493 299.63H523.643ZM686.553 230.84C686.185 230.473 685.779 230.145 685.344 229.86C684.361 229.223 683.234 228.845 682.066 228.759C680.899 228.673 679.728 228.884 678.663 229.37L572.234 277.61L523.643 299.63L475.103 321.63L463.614 326.84C462.966 327.132 462.264 327.283 461.553 327.283C460.843 327.283 460.141 327.132 459.493 326.84L448.004 321.63L436.033 316.2L363.663 283.41L363.643 283.4L343.913 274.45L285.004 247.75L244.444 229.37C244.031 229.179 243.598 229.035 243.154 228.94C242.174 228.696 241.152 228.675 240.163 228.88C238.582 229.204 237.16 230.063 236.139 231.313C235.117 232.562 234.557 234.126 234.554 235.74V486.87C234.556 488.726 235.294 490.506 236.606 491.818C237.918 493.13 239.698 493.868 241.554 493.87H681.554C683.409 493.868 685.189 493.13 686.501 491.818C687.813 490.506 688.552 488.726 688.554 486.87V235.74C688.557 233.908 687.838 232.147 686.553 230.84V230.84ZM686.553 486.87C686.553 488.196 686.026 489.468 685.088 490.405C684.151 491.343 682.879 491.87 681.553 491.87H241.554C240.228 491.87 238.956 491.343 238.019 490.405C237.081 489.468 236.554 488.196 236.554 486.87V235.74C236.554 234.905 236.764 234.082 237.164 233.349C237.564 232.615 238.141 231.993 238.844 231.54C239.338 231.224 239.882 230.994 240.453 230.86C240.622 230.824 240.792 230.797 240.964 230.78C241.159 230.752 241.356 230.739 241.553 230.74C242.264 230.741 242.967 230.895 243.613 231.19L285.953 250.38L344.513 276.92L360.973 284.38L363.643 285.59L433.334 317.18L443.154 321.63L458.663 328.66C459.572 329.071 460.557 329.283 461.553 329.283C462.55 329.283 463.535 329.071 464.444 328.66L479.953 321.63L528.493 299.63L573.734 279.12L679.493 231.19C680.254 230.845 681.09 230.697 681.923 230.758C682.756 230.819 683.561 231.088 684.263 231.54C684.344 231.588 684.421 231.641 684.493 231.7C684.573 231.752 684.647 231.812 684.714 231.88C685.289 232.346 685.753 232.934 686.071 233.602C686.389 234.27 686.554 235 686.553 235.74L686.553 486.87ZM523.643 299.63L475.103 321.63L463.614 326.84C462.966 327.132 462.264 327.283 461.554 327.283C460.843 327.283 460.141 327.132 459.493 326.84L448.004 321.63H443.154L458.663 328.66C459.572 329.071 460.557 329.283 461.554 329.283C462.55 329.283 463.535 329.071 464.444 328.66L479.953 321.63L528.493 299.63H523.643ZM523.643 299.63L475.103 321.63L463.614 326.84C462.966 327.132 462.264 327.283 461.554 327.283C460.843 327.283 460.141 327.132 459.493 326.84L448.004 321.63H443.154L458.663 328.66C459.572 329.071 460.557 329.283 461.554 329.283C462.55 329.283 463.535 329.071 464.444 328.66L479.953 321.63L528.493 299.63H523.643ZM360.973 284.38L363.643 285.59V283.41L360.973 284.38ZM523.643 299.63L475.103 321.63L463.614 326.84C462.966 327.132 462.264 327.283 461.554 327.283C460.843 327.283 460.141 327.132 459.493 326.84L448.004 321.63H443.154L458.663 328.66C459.572 329.071 460.557 329.283 461.554 329.283C462.55 329.283 463.535 329.071 464.444 328.66L479.953 321.63L528.493 299.63H523.643Z" fill="#47446B" stroke="black"/>
</g>
<defs>
<filter id="filter0_d" x="235.054" y="38.319" width="456" height="202.051" filterUnits="userSpaceOnUse" color-interpolation-filters="sRGB">
<feFlood flood-opacity="0" result="BackgroundImageFix"/>
<feColorMatrix in="SourceAlpha" type="matrix" values="0 0 0 0 0 0 0 0 0 0 0 0 0 0 0 0 0 0 127 0"/>
<feOffset dy="4"/>
<feGaussianBlur stdDeviation="2"/>
<feColorMatrix type="matrix" values="0 0 0 0 0 0 0 0 0 0 0 0 0 0 0 0 0 0 0.25 0"/>
<feBlend mode="normal" in2="BackgroundImageFix" result="effect1_dropShadow"/>
<feBlend mode="normal" in="SourceGraphic" in2="effect1_dropShadow" result="shape"/>
</filter>
<clipPath id="clip0">
<rect width="760.554" height="493.87" fill="white"/>
</clipPath>
</defs>
</svg>
