<svg width="262" height="219" viewBox="0 0 262 219" fill="none" xmlns="http://www.w3.org/2000/svg">
<g id="undraw_data_extraction_ih3n 1" style="mix-blend-mode:multiply">
<g id="circles">
<path id="Vector" d="M130.532 215.415C75.0981 215.415 30 168.448 30 110.719C30 52.9902 75.0981 6.02409 130.532 6.02409C185.965 6.02409 231.063 52.9902 231.063 110.719C231.063 168.448 185.965 215.415 130.532 215.415ZM130.532 7.03563C75.6341 7.03563 30.9713 53.5478 30.9713 110.719C30.9713 167.891 75.6341 214.403 130.532 214.403C185.429 214.403 230.092 167.891 230.092 110.719C230.092 53.5478 185.429 7.03563 130.532 7.03563Z" fill="#343030"/>
<path id="Vector_2" d="M130.532 186.08C90.6303 186.08 58.1683 152.273 58.1683 110.719C58.1683 69.1655 90.6303 35.359 130.532 35.359C170.433 35.359 202.895 69.1655 202.895 110.719C202.895 152.273 170.433 186.08 130.532 186.08ZM130.532 36.3705C91.1662 36.3705 59.1396 69.7232 59.1396 110.719C59.1396 151.715 91.1662 185.068 130.532 185.068C169.897 185.068 201.924 151.715 201.924 110.719C201.924 69.7232 169.897 36.3705 130.532 36.3705Z" fill="#343030"/>
<path id="Vector_3" d="M130.532 156.412C121.854 156.412 113.371 153.732 106.156 148.711C98.9407 143.69 93.3171 136.554 89.9963 128.205C86.6755 119.856 85.8066 110.669 87.4996 101.805C89.1925 92.9418 93.3713 84.8002 99.5073 78.41C105.643 72.0198 113.461 67.668 121.972 65.905C130.483 64.1419 139.305 65.0468 147.322 68.5051C155.339 71.9634 162.192 77.8199 167.013 85.334C171.834 92.848 174.407 101.682 174.407 110.719C174.394 122.833 169.767 134.448 161.542 143.014C153.316 151.58 142.164 156.398 130.532 156.412ZM130.532 66.0386C122.046 66.0386 113.751 68.6591 106.696 73.5687C99.6401 78.4783 94.141 85.4565 90.8937 93.6209C87.6464 101.785 86.7968 110.769 88.4523 119.436C90.1077 128.104 94.194 136.065 100.194 142.314C106.194 148.562 113.839 152.818 122.162 154.542C130.484 156.266 139.111 155.381 146.951 151.999C154.79 148.617 161.491 142.89 166.205 135.543C170.92 128.195 173.436 119.556 173.436 110.719C173.423 98.8733 168.899 87.5163 160.855 79.14C152.812 70.7636 141.907 66.0519 130.532 66.0386Z" fill="#343030"/>
</g>
<g id="Blue-Bubbles">
<path id="Vector_4" d="M146.47 14.7132C150.372 14.7132 153.534 11.4195 153.534 7.35659C153.534 3.29366 150.372 0 146.47 0C142.569 0 139.406 3.29366 139.406 7.35659C139.406 11.4195 142.569 14.7132 146.47 14.7132Z" fill="#60656A"/>
<path id="Vector_5" d="M198.092 135.814C201.993 135.814 205.156 132.52 205.156 128.457C205.156 124.394 201.993 121.101 198.092 121.101C194.191 121.101 191.028 124.394 191.028 128.457C191.028 132.52 194.191 135.814 198.092 135.814Z" fill="#05FFF0"/>
<path id="Vector_6" d="M43.2265 65.6434C47.1279 65.6434 50.2905 62.3497 50.2905 58.2868C50.2905 54.2239 47.1279 50.9302 43.2265 50.9302C39.3251 50.9302 36.1624 54.2239 36.1624 58.2868C36.1624 62.3497 39.3251 65.6434 43.2265 65.6434Z" fill="#075FC7"/>
<path id="Vector_7" d="M156.795 219C160.696 219 163.859 215.706 163.859 211.643C163.859 207.58 160.696 204.287 156.795 204.287C152.893 204.287 149.73 207.58 149.73 211.643C149.73 215.706 152.893 219 156.795 219Z" fill="#2288FF"/>
<path id="Vector_8" d="M57.8979 189.574C61.7993 189.574 64.962 186.28 64.962 182.217C64.962 178.154 61.7993 174.86 57.8979 174.86C53.9966 174.86 50.8339 178.154 50.8339 182.217C50.8339 186.28 53.9966 189.574 57.8979 189.574Z" fill="url(#paint0_linear)"/>
</g>
<g id="Black-Bubbles">
<path id="Vector_9" d="M130.532 133.921C142.836 133.921 152.811 123.533 152.811 110.719C152.811 97.9055 142.836 87.5178 130.532 87.5178C118.227 87.5178 108.253 97.9055 108.253 110.719C108.253 123.533 118.227 133.921 130.532 133.921Z" fill="#FE9E0E"/>
<path id="Vector_10" d="M58.8693 126.352C62.7706 126.352 65.9333 123.058 65.9333 118.995C65.9333 114.932 62.7706 111.639 58.8693 111.639C54.9679 111.639 51.8052 114.932 51.8052 118.995C51.8052 123.058 54.9679 126.352 58.8693 126.352Z" fill="#3FC80F"/>
<path id="Vector_11" d="M218.652 168.331C222.553 168.331 225.716 165.037 225.716 160.975C225.716 156.912 222.553 153.618 218.652 153.618C214.75 153.618 211.588 156.912 211.588 160.975C211.588 165.037 214.75 168.331 218.652 168.331Z" fill="#FF0000"/>
<path id="Vector_12" d="M190.969 76.7861C194.87 76.7861 198.033 73.4925 198.033 69.4295C198.033 65.3666 194.87 62.073 190.969 62.073C187.068 62.073 183.905 65.3666 183.905 69.4295C183.905 73.4925 187.068 76.7861 190.969 76.7861Z" fill="#FB00C4"/>
</g>
</g>
<defs>
<linearGradient id="paint0_linear" x1="73" y1="182" x2="58" y2="190" gradientUnits="userSpaceOnUse">
<stop stop-color="#5FA7FB" stop-opacity="0.9"/>
<stop offset="1" stop-color="#4E1562"/>
</linearGradient>
</defs>
</svg>
