<svg width="258" height="168" viewBox="0 0 258 168" fill="none" xmlns="http://www.w3.org/2000/svg">
<g id="undraw_authentication_fsn5 1" clip-path="url(#clip0)">
<g id="static">
<g id="image">
<path id="Vector" d="M145.932 22.8721C129.395 22.893 113.477 18.4712 98.2514 13.5591C83.0259 8.64692 67.9176 3.14632 51.6876 0.815452C41.2497 -0.682816 29.3803 -0.545092 21.2211 4.895C13.3672 10.1285 11.0929 18.7905 9.99552 26.7931C9.1703 32.8133 8.78977 39.1319 11.8805 44.6387C14.0265 48.4616 17.699 51.6126 20.2875 55.256C29.3228 67.9307 23.8892 84.1216 15.1083 97.0906C10.9911 103.175 6.16812 109.008 3.05531 115.441C-0.057496 121.875 -1.33403 129.17 1.84072 135.52C4.98671 141.813 12.0928 146.381 19.7189 149.501C35.2055 155.849 53.2363 157.209 70.7826 157.733C109.623 158.895 148.539 156.525 187.35 154.154C201.713 153.278 216.14 152.395 230.206 149.855C238.016 148.447 246.058 146.356 251.595 141.774C258.624 135.956 260.062 126.457 254.947 119.629C246.37 108.177 223.753 106.018 217.602 93.6266C214.211 86.8051 217.135 78.982 221.443 72.4068C230.682 58.2984 246.584 45.6612 246.852 29.8814C247.036 19.0451 238.766 8.47373 226.414 3.76399C213.467 -1.16902 195.815 0.0997059 186.744 9.29381C177.417 18.7654 160.534 22.8575 145.932 22.8721Z" fill="url(#paint0_linear)"/>
<path id="Vector_2" d="M219.584 134.669C219.584 134.669 216.865 132.976 214.171 134.18C214.171 134.18 215 135.687 218.412 135.545L219.584 134.669Z" fill="#6C63FF"/>
<path id="Vector_3" d="M219.93 134.758C219.93 134.758 220.757 137.73 218.682 139.752C218.682 139.752 217.434 138.527 218.682 135.526L219.93 134.758Z" fill="#6C63FF"/>
<path id="Vector_4" d="M223.31 131.906C223.31 131.906 223.109 129.379 217.058 130.218C217.058 130.218 217.029 131.848 219.153 132.62C221.277 133.392 222.25 132.741 223.31 131.906Z" fill="#6C63FF"/>
<path id="Vector_5" d="M223.691 131.889C223.691 131.889 226.248 132.663 223.967 138.016C223.967 138.016 222.279 137.661 221.976 135.531C221.673 133.4 222.571 132.666 223.691 131.889Z" fill="#6C63FF"/>
<path id="Vector_6" d="M227.106 128.304C227.106 128.304 227.454 124.145 221.27 124.571C221.27 124.571 220.828 128.327 226.016 129.304L227.106 128.304Z" fill="#6C63FF"/>
<path id="Vector_7" d="M231.193 123.609C231.193 123.609 230.345 118.895 224.164 120.3C224.164 120.3 224.142 124.375 230.184 124.732L231.193 123.609Z" fill="#6C63FF"/>
<path id="Vector_8" d="M234.179 118.755C234.179 118.755 232.759 114.165 226.635 115.538C226.635 115.538 228.093 119.667 233.772 119.603L234.179 118.755Z" fill="#6C63FF"/>
<path id="Vector_9" d="M237.016 114.014C237.016 114.014 235.628 109.25 229.715 110.676C229.715 110.676 231.688 115.202 236.624 114.82L237.016 114.014Z" fill="#6C63FF"/>
<path id="Vector_10" d="M238.843 109.511C238.843 109.511 237.777 103.685 232.263 104.975C232.263 104.975 233.865 110.275 238.438 110.361L238.843 109.511Z" fill="#6C63FF"/>
<path id="Vector_11" d="M240.558 104.071C240.558 104.071 239.277 98.1991 233.699 99.8977C233.699 99.8977 235.885 105.448 240.162 104.875L240.558 104.071Z" fill="#6C63FF"/>
<path id="Vector_12" d="M241.611 99.0088C241.611 99.0088 239.578 93.1346 235.266 93.2932C235.266 93.2932 237.343 99.4971 241.25 100.179L241.611 99.0088Z" fill="#6C63FF"/>
<path id="Vector_13" d="M242.292 94.0674C242.292 94.0674 240.08 86.9975 236.571 87.5422C236.571 87.5422 238.102 92.9468 242.168 95.1692L242.292 94.0674Z" fill="#6C63FF"/>
<path id="Vector_14" d="M242.677 88.1724C242.677 88.1724 240.602 82.2816 237.146 82.0458C237.146 82.0458 238.558 87.8427 242.609 89.7041L242.677 88.1724Z" fill="#6C63FF"/>
<path id="Vector_15" d="M243.095 82.6718C243.095 82.6718 240.509 76.7747 238.228 76.6412C238.228 76.6412 239.352 82.4485 242.874 83.64L243.095 82.6718Z" fill="#6C63FF"/>
<path id="Vector_16" d="M243.381 77.5552C243.381 77.5552 241.79 71.151 239.505 70.6189C239.505 70.6189 239.817 75.8587 243.151 78.0351L243.381 77.5552Z" fill="#6C63FF"/>
<path id="Vector_17" d="M244.243 70.8526C244.243 70.8526 242.571 65.7464 240.719 64.968C240.719 64.968 241.084 70.9882 243.816 72.1005L244.243 70.8526Z" fill="#6C63FF"/>
<path id="Vector_18" d="M244.958 66.4705L245.294 57.4684C245.294 57.4684 241.832 64.2544 244.708 68.0501L244.958 66.4705Z" fill="#6C63FF"/>
<path id="Vector_19" d="M247.631 57.5163C247.631 57.5163 250.124 50.9432 250.728 50.5759C250.728 50.5759 245.839 54.8412 246.316 60.3271L247.631 57.5163Z" fill="#6C63FF"/>
<path id="Vector_20" d="M227.275 128.273C227.275 128.273 231.66 127.732 231.529 133.577C231.529 133.577 227.567 134.187 226.272 129.352L227.275 128.273Z" fill="#6C63FF"/>
<path id="Vector_21" d="M231.401 123.451C231.401 123.451 236.467 123.436 236.047 129.419C236.047 129.419 231.792 130.136 230.39 124.582L231.401 123.451Z" fill="#6C63FF"/>
<path id="Vector_22" d="M234.228 119.141C234.228 119.141 238.828 117.107 241.77 122.359C241.77 122.359 237.522 124.054 233.821 119.991L234.228 119.141Z" fill="#6C63FF"/>
<path id="Vector_23" d="M237.117 114.058C237.117 114.058 241.828 111.894 244.593 117.023C244.593 117.023 239.686 118.618 236.728 114.87L237.117 114.058Z" fill="#6C63FF"/>
<path id="Vector_24" d="M238.783 109.639C238.783 109.639 243.316 105.555 246.934 109.684C246.934 109.684 242.303 113.046 238.575 110.548L238.783 109.639Z" fill="#6C63FF"/>
<path id="Vector_25" d="M240.301 103.931C240.301 103.931 244.861 99.7579 248.449 104.123C248.449 104.123 243.332 107.552 240.137 104.808L240.301 103.931Z" fill="#6C63FF"/>
<path id="Vector_26" d="M241.153 98.8418C241.153 98.8418 244.666 93.625 248.803 94.7894C248.803 94.7894 245.157 100.313 241.193 100.067L241.153 98.8418Z" fill="#6C63FF"/>
<path id="Vector_27" d="M242.188 94.034C242.188 94.034 245.728 87.465 249.077 88.6085C249.077 88.6085 246.524 93.6584 242.097 95.1421L242.188 94.034Z" fill="#6C63FF"/>
<path id="Vector_28" d="M242.434 87.8302C242.434 87.8302 246.073 82.6593 249.482 83.2915C249.482 83.2915 246.507 88.5355 242.08 89.3263L242.434 87.8302Z" fill="#6C63FF"/>
<path id="Vector_29" d="M242.717 82.557C242.717 82.557 245.538 76.7539 247.83 76.7142C247.83 76.7142 246.476 82.4756 242.907 83.542L242.717 82.557Z" fill="#6C63FF"/>
<path id="Vector_30" d="M243.27 77.4299C243.27 77.4299 246.405 71.5537 248.761 71.5412C248.761 71.5412 247.157 76.566 243.374 77.9454L243.27 77.4299Z" fill="#6C63FF"/>
<path id="Vector_31" d="M243.741 71.2199C243.741 71.2199 246.086 66.3578 248.029 65.8069C248.029 65.8069 246.856 71.7332 244 72.5095L243.741 71.2199Z" fill="#6C63FF"/>
<path id="Vector_32" d="M245.237 66.2931L250.478 58.7621C250.478 58.7621 249.135 66.1909 244.471 67.735L245.237 66.2931Z" fill="#6C63FF"/>
<path id="Vector_33" d="M248.834 58.1236C248.834 58.1236 254.925 54.1588 255.146 53.5182C255.146 53.5182 252.049 59.071 246.297 60.0517L248.834 58.1236Z" fill="#6C63FF"/>
<path id="Vector_34" d="M249.199 56.3394C249.199 56.3394 256.192 49.9979 257.978 50.0041C257.978 50.0041 252.21 50.2524 249.031 56.0014L249.199 56.3394Z" fill="#6C63FF"/>
<path id="Vector_35" d="M243.81 72.161L244.064 72.1923C245.378 62.4911 247.294 56.7505 249.458 56.0473L249.374 55.8178C247.08 56.569 245.151 62.2219 243.81 72.161Z" fill="#444053"/>
<path id="Vector_36" d="M241.876 95.3612L242.261 95.3904C242.343 94.4847 242.405 93.5582 242.447 92.6338C242.814 84.6041 243.383 77.2296 244.131 71.7019L243.909 71.4411C243.159 76.9813 242.429 84.577 242.062 92.6192C242.02 93.5374 241.958 94.4597 241.876 95.3612Z" fill="#444053"/>
<path id="Vector_37" d="M212.407 139.297C212.474 139.27 219.25 136.415 226.283 129.608C230.404 125.622 233.828 121.044 236.427 116.045C239.679 109.799 241.662 102.124 242.325 94.6684L241.925 94.8458C240.432 111.581 232.354 123.016 225.932 129.245C218.967 135.992 212.266 138.817 212.2 138.844L212.407 139.297Z" fill="#444053"/>
<path id="Vector_38" d="M229.954 17.7851H17.3715C16.8692 17.7851 16.3876 17.9733 16.0324 18.3083C15.6772 18.6433 15.4777 19.0976 15.4777 19.5714V24.7757H231.848V19.5714C231.848 19.0976 231.648 18.6433 231.293 18.3083C230.938 17.9733 230.456 17.7851 229.954 17.7851V17.7851Z" fill="#3F3D56"/>
<path id="Vector_39" d="M15.4777 24.7757V141.891C15.4777 142.846 15.88 143.762 16.5962 144.438C17.3123 145.113 18.2835 145.493 19.2963 145.493H228.029C229.042 145.493 230.013 145.113 230.729 144.438C231.445 143.762 231.848 142.846 231.848 141.891V24.7757H15.4777Z" fill="url(#paint1_linear)"/>
<path id="Vector_40" opacity="0.8" d="M18.9047 22.0629C19.3934 22.0629 19.7896 21.6892 19.7896 21.2282C19.7896 20.7672 19.3934 20.3935 18.9047 20.3935C18.4159 20.3935 18.0197 20.7672 18.0197 21.2282C18.0197 21.6892 18.4159 22.0629 18.9047 22.0629Z" fill="#FA5959"/>
<path id="Vector_41" opacity="0.8" d="M21.3383 22.0629C21.827 22.0629 22.2232 21.6892 22.2232 21.2282C22.2232 20.7672 21.827 20.3935 21.3383 20.3935C20.8496 20.3935 20.4534 20.7672 20.4534 21.2282C20.4534 21.6892 20.8496 22.0629 21.3383 22.0629Z" fill="#FED253"/>
<path id="Vector_42" opacity="0.8" d="M23.7719 22.0629C24.2606 22.0629 24.6569 21.6892 24.6569 21.2282C24.6569 20.7672 24.2606 20.3935 23.7719 20.3935C23.2832 20.3935 22.887 20.7672 22.887 21.2282C22.887 21.6892 23.2832 22.0629 23.7719 22.0629Z" fill="#8CCF4D"/>
<path id="Vector_43" opacity="0.05" d="M209.483 44.3032H35.5904V116.425H209.483V44.3032Z" fill="black"/>
<path id="Vector_44" d="M208.155 44.8499H36.9178V115.381H208.155V44.8499Z" fill="url(#paint2_linear)"/>
<path id="Vector_45" d="M185.368 76.3595H114.572V83.4543H185.368V76.3595Z" fill="white"/>
<path id="Vector_46" d="M185.368 89.2971H170.103V96.392H185.368V89.2971Z" fill="url(#paint3_radial)"/>
<path id="Vector_47" d="M121.541 79.8005H120.26L121.399 78.7279C121.42 78.708 121.431 78.6815 121.431 78.6538C121.431 78.6262 121.42 78.5996 121.399 78.5797C121.389 78.57 121.377 78.5622 121.363 78.5569C121.35 78.5516 121.335 78.5489 121.321 78.5489C121.306 78.5489 121.292 78.5516 121.278 78.5569C121.265 78.5622 121.253 78.57 121.242 78.5797L120.103 79.6544V78.4441C120.103 78.4164 120.091 78.3899 120.071 78.3703C120.05 78.3508 120.022 78.3398 119.992 78.3398C119.963 78.3403 119.935 78.3515 119.915 78.3709C119.894 78.3904 119.882 78.4166 119.882 78.4441V79.6544L118.745 78.5735C118.734 78.5637 118.722 78.5559 118.709 78.5506C118.695 78.5453 118.681 78.5426 118.666 78.5426C118.651 78.5426 118.637 78.5453 118.623 78.5506C118.61 78.5559 118.598 78.5637 118.587 78.5735C118.567 78.5933 118.556 78.6199 118.556 78.6476C118.556 78.6752 118.567 78.7018 118.587 78.7216L119.727 79.7942H118.444C118.415 79.7947 118.387 79.8059 118.366 79.8254C118.345 79.8448 118.334 79.871 118.333 79.8986C118.333 79.9262 118.345 79.9528 118.365 79.9723C118.386 79.9919 118.414 80.0029 118.444 80.0029H119.727L118.587 81.0775C118.567 81.0974 118.556 81.124 118.556 81.1516C118.556 81.1793 118.567 81.2058 118.587 81.2257C118.609 81.2445 118.637 81.2549 118.666 81.2549C118.695 81.2549 118.723 81.2445 118.745 81.2257L119.882 80.151V81.3593C119.882 81.3869 119.893 81.4135 119.914 81.433C119.935 81.4526 119.963 81.4636 119.992 81.4636C120.022 81.4636 120.05 81.4526 120.071 81.433C120.091 81.4135 120.103 81.3869 120.103 81.3593V80.151L121.242 81.2257C121.264 81.2445 121.292 81.2549 121.321 81.2549C121.35 81.2549 121.378 81.2445 121.399 81.2257C121.42 81.2058 121.431 81.1793 121.431 81.1516C121.431 81.124 121.42 81.0974 121.399 81.0775L120.26 80.0029H121.541C121.57 80.0029 121.598 79.9919 121.619 79.9723C121.64 79.9528 121.652 79.9262 121.652 79.8986C121.65 79.872 121.638 79.847 121.617 79.8288C121.596 79.8106 121.569 79.8004 121.541 79.8005Z" fill="black"/>
<path id="Vector_48" d="M126.187 79.8005H124.906L126.045 78.7279C126.066 78.708 126.077 78.6815 126.077 78.6538C126.077 78.6262 126.066 78.5996 126.045 78.5797C126.035 78.57 126.023 78.5622 126.009 78.5569C125.996 78.5516 125.981 78.5489 125.967 78.5489C125.952 78.5489 125.938 78.5516 125.924 78.5569C125.911 78.5622 125.899 78.57 125.888 78.5797L124.749 79.6544V78.4441C124.749 78.4164 124.737 78.3899 124.717 78.3703C124.696 78.3508 124.668 78.3398 124.638 78.3398C124.609 78.3403 124.581 78.3515 124.561 78.3709C124.54 78.3904 124.528 78.4166 124.528 78.4441V79.6544L123.391 78.5735C123.38 78.5637 123.368 78.5559 123.355 78.5506C123.341 78.5453 123.327 78.5426 123.312 78.5426C123.297 78.5426 123.283 78.5453 123.269 78.5506C123.256 78.5559 123.244 78.5637 123.233 78.5735C123.213 78.5933 123.202 78.6199 123.202 78.6476C123.202 78.6752 123.213 78.7018 123.233 78.7216L124.373 79.7942H123.09C123.06 79.7947 123.033 79.8059 123.012 79.8254C122.991 79.8448 122.98 79.871 122.979 79.8986C122.979 79.9262 122.991 79.9528 123.011 79.9723C123.032 79.9919 123.06 80.0029 123.09 80.0029H124.373L123.233 81.0775C123.213 81.0974 123.202 81.124 123.202 81.1516C123.202 81.1793 123.213 81.2058 123.233 81.2257C123.255 81.2445 123.283 81.2549 123.312 81.2549C123.341 81.2549 123.369 81.2445 123.391 81.2257L124.528 80.151V81.3593C124.528 81.3869 124.539 81.4135 124.56 81.433C124.581 81.4526 124.609 81.4636 124.638 81.4636C124.668 81.4636 124.696 81.4526 124.717 81.433C124.737 81.4135 124.749 81.3869 124.749 81.3593V80.151L125.888 81.2257C125.91 81.2445 125.938 81.2549 125.967 81.2549C125.996 81.2549 126.024 81.2445 126.045 81.2257C126.066 81.2058 126.077 81.1793 126.077 81.1516C126.077 81.124 126.066 81.0974 126.045 81.0775L124.906 80.0029H126.187C126.216 80.0029 126.244 79.9919 126.265 79.9723C126.286 79.9528 126.298 79.9262 126.298 79.8986C126.296 79.872 126.283 79.847 126.263 79.8288C126.242 79.8106 126.215 79.8004 126.187 79.8005Z" fill="black"/>
<path id="Vector_49" d="M130.833 79.8005H129.552L130.691 78.7279C130.712 78.708 130.723 78.6815 130.723 78.6538C130.723 78.6262 130.712 78.5996 130.691 78.5797C130.681 78.57 130.669 78.5622 130.655 78.5569C130.642 78.5516 130.627 78.5489 130.613 78.5489C130.598 78.5489 130.584 78.5516 130.57 78.5569C130.557 78.5622 130.545 78.57 130.534 78.5797L129.395 79.6544V78.4441C129.395 78.4164 129.383 78.3899 129.363 78.3703C129.342 78.3508 129.314 78.3398 129.284 78.3398C129.255 78.3403 129.227 78.3515 129.207 78.3709C129.186 78.3904 129.174 78.4166 129.174 78.4441V79.6544L128.037 78.5735C128.026 78.5637 128.014 78.5559 128.001 78.5506C127.987 78.5453 127.973 78.5426 127.958 78.5426C127.943 78.5426 127.929 78.5453 127.915 78.5506C127.902 78.5559 127.89 78.5637 127.879 78.5735C127.859 78.5933 127.848 78.6199 127.848 78.6476C127.848 78.6752 127.859 78.7018 127.879 78.7216L129.019 79.7942H127.736C127.706 79.7947 127.679 79.8059 127.658 79.8254C127.637 79.8448 127.626 79.871 127.625 79.8986C127.625 79.9262 127.637 79.9528 127.657 79.9723C127.678 79.9919 127.706 80.0029 127.736 80.0029H129.019L127.879 81.0775C127.859 81.0974 127.848 81.124 127.848 81.1516C127.848 81.1793 127.859 81.2058 127.879 81.2257C127.901 81.2445 127.929 81.2549 127.958 81.2549C127.987 81.2549 128.015 81.2445 128.037 81.2257L129.174 80.151V81.3593C129.174 81.3869 129.185 81.4135 129.206 81.433C129.227 81.4526 129.255 81.4636 129.284 81.4636C129.314 81.4636 129.342 81.4526 129.363 81.433C129.383 81.4135 129.395 81.3869 129.395 81.3593V80.151L130.534 81.2257C130.556 81.2445 130.584 81.2549 130.613 81.2549C130.642 81.2549 130.67 81.2445 130.691 81.2257C130.712 81.2058 130.723 81.1793 130.723 81.1516C130.723 81.124 130.712 81.0974 130.691 81.0775L129.552 80.0029H130.833C130.862 80.0029 130.89 79.9919 130.911 79.9723C130.932 79.9528 130.944 79.9262 130.944 79.8986C130.942 79.872 130.929 79.847 130.909 79.8288C130.888 79.8106 130.861 79.8004 130.833 79.8005Z" fill="black"/>
<path id="Vector_50" d="M135.479 79.8005H134.198L135.337 78.7279C135.358 78.708 135.369 78.6815 135.369 78.6538C135.369 78.6262 135.358 78.5996 135.337 78.5797C135.327 78.57 135.315 78.5622 135.301 78.5569C135.288 78.5516 135.273 78.5489 135.259 78.5489C135.244 78.5489 135.23 78.5516 135.216 78.5569C135.203 78.5622 135.191 78.57 135.18 78.5797L134.041 79.6544V78.4441C134.041 78.4164 134.029 78.3899 134.008 78.3703C133.988 78.3508 133.96 78.3398 133.93 78.3398C133.901 78.3403 133.873 78.3515 133.853 78.3709C133.832 78.3904 133.82 78.4166 133.82 78.4441V79.6544L132.682 78.5735C132.672 78.5637 132.66 78.5559 132.646 78.5506C132.633 78.5453 132.619 78.5426 132.604 78.5426C132.589 78.5426 132.575 78.5453 132.561 78.5506C132.548 78.5559 132.536 78.5637 132.525 78.5735C132.505 78.5933 132.494 78.6199 132.494 78.6476C132.494 78.6752 132.505 78.7018 132.525 78.7216L133.665 79.7942H132.382C132.352 79.7947 132.325 79.8059 132.304 79.8254C132.283 79.8448 132.272 79.871 132.271 79.8986C132.271 79.9262 132.283 79.9528 132.303 79.9723C132.324 79.9919 132.352 80.0029 132.382 80.0029H133.665L132.525 81.0775C132.505 81.0974 132.494 81.124 132.494 81.1516C132.494 81.1793 132.505 81.2058 132.525 81.2257C132.547 81.2445 132.575 81.2549 132.604 81.2549C132.633 81.2549 132.661 81.2445 132.682 81.2257L133.82 80.151V81.3593C133.82 81.3869 133.831 81.4135 133.852 81.433C133.873 81.4526 133.901 81.4636 133.93 81.4636C133.96 81.4636 133.988 81.4526 134.008 81.433C134.029 81.4135 134.041 81.3869 134.041 81.3593V80.151L135.18 81.2257C135.202 81.2445 135.23 81.2549 135.259 81.2549C135.288 81.2549 135.316 81.2445 135.337 81.2257C135.358 81.2058 135.369 81.1793 135.369 81.1516C135.369 81.124 135.358 81.0974 135.337 81.0775L134.198 80.0029H135.479C135.508 80.0029 135.536 79.9919 135.557 79.9723C135.578 79.9528 135.59 79.9262 135.59 79.8986C135.588 79.872 135.575 79.847 135.555 79.8288C135.534 79.8106 135.507 79.8004 135.479 79.8005Z" fill="black"/>
<path id="Vector_51" d="M140.125 79.8005H138.844L139.983 78.7279C140.004 78.708 140.015 78.6815 140.015 78.6538C140.015 78.6262 140.004 78.5996 139.983 78.5797C139.973 78.57 139.961 78.5622 139.947 78.5569C139.934 78.5516 139.919 78.5489 139.905 78.5489C139.89 78.5489 139.876 78.5516 139.862 78.5569C139.849 78.5622 139.837 78.57 139.826 78.5797L138.687 79.6544V78.4441C138.687 78.4164 138.675 78.3899 138.654 78.3703C138.634 78.3508 138.606 78.3398 138.576 78.3398C138.547 78.3403 138.519 78.3515 138.499 78.3709C138.478 78.3904 138.466 78.4166 138.466 78.4441V79.6544L137.328 78.5735C137.318 78.5637 137.306 78.5559 137.292 78.5506C137.279 78.5453 137.265 78.5426 137.25 78.5426C137.235 78.5426 137.221 78.5453 137.207 78.5506C137.194 78.5559 137.182 78.5637 137.171 78.5735C137.151 78.5933 137.14 78.6199 137.14 78.6476C137.14 78.6752 137.151 78.7018 137.171 78.7216L138.311 79.7942H137.028C136.998 79.7947 136.971 79.8059 136.95 79.8254C136.929 79.8448 136.918 79.871 136.917 79.8986C136.917 79.9262 136.929 79.9528 136.949 79.9723C136.97 79.9919 136.998 80.0029 137.028 80.0029H138.311L137.171 81.0775C137.151 81.0974 137.14 81.124 137.14 81.1516C137.14 81.1793 137.151 81.2058 137.171 81.2257C137.193 81.2445 137.221 81.2549 137.25 81.2549C137.279 81.2549 137.307 81.2445 137.328 81.2257L138.466 80.151V81.3593C138.466 81.3869 138.477 81.4135 138.498 81.433C138.519 81.4526 138.547 81.4636 138.576 81.4636C138.606 81.4636 138.634 81.4526 138.654 81.433C138.675 81.4135 138.687 81.3869 138.687 81.3593V80.151L139.826 81.2257C139.848 81.2445 139.876 81.2549 139.905 81.2549C139.934 81.2549 139.962 81.2445 139.983 81.2257C140.004 81.2058 140.015 81.1793 140.015 81.1516C140.015 81.124 140.004 81.0974 139.983 81.0775L138.844 80.0029H140.125C140.154 80.0029 140.182 79.9919 140.203 79.9723C140.224 79.9528 140.236 79.9262 140.236 79.8986C140.234 79.872 140.221 79.847 140.201 79.8288C140.18 79.8106 140.153 79.8004 140.125 79.8005Z" fill="black"/>
<path id="Vector_52" d="M144.771 79.8005H143.49L144.629 78.7279C144.65 78.708 144.661 78.6815 144.661 78.6538C144.661 78.6262 144.65 78.5996 144.629 78.5797C144.619 78.57 144.607 78.5622 144.593 78.5569C144.58 78.5516 144.565 78.5489 144.551 78.5489C144.536 78.5489 144.522 78.5516 144.508 78.5569C144.495 78.5622 144.482 78.57 144.472 78.5797L143.333 79.6544V78.4441C143.333 78.4164 143.321 78.3899 143.3 78.3703C143.28 78.3508 143.252 78.3398 143.222 78.3398C143.193 78.3403 143.165 78.3515 143.145 78.3709C143.124 78.3904 143.112 78.4166 143.112 78.4441V79.6544L141.974 78.5735C141.964 78.5637 141.952 78.5559 141.938 78.5506C141.925 78.5453 141.91 78.5426 141.896 78.5426C141.881 78.5426 141.867 78.5453 141.853 78.5506C141.84 78.5559 141.828 78.5637 141.817 78.5735C141.797 78.5933 141.786 78.6199 141.786 78.6476C141.786 78.6752 141.797 78.7018 141.817 78.7216L142.957 79.7942H141.674C141.644 79.7947 141.617 79.8059 141.596 79.8254C141.575 79.8448 141.564 79.871 141.563 79.8986C141.563 79.9262 141.575 79.9528 141.595 79.9723C141.616 79.9919 141.644 80.0029 141.674 80.0029H142.957L141.817 81.0775C141.797 81.0974 141.786 81.124 141.786 81.1516C141.786 81.1793 141.797 81.2058 141.817 81.2257C141.839 81.2445 141.867 81.2549 141.896 81.2549C141.925 81.2549 141.953 81.2445 141.974 81.2257L143.112 80.151V81.3593C143.112 81.3869 143.123 81.4135 143.144 81.433C143.165 81.4526 143.193 81.4636 143.222 81.4636C143.252 81.4636 143.28 81.4526 143.3 81.433C143.321 81.4135 143.333 81.3869 143.333 81.3593V80.151L144.472 81.2257C144.494 81.2445 144.522 81.2549 144.551 81.2549C144.58 81.2549 144.608 81.2445 144.629 81.2257C144.65 81.2058 144.661 81.1793 144.661 81.1516C144.661 81.124 144.65 81.0974 144.629 81.0775L143.49 80.0029H144.771C144.8 80.0029 144.828 79.9919 144.849 79.9723C144.87 79.9528 144.882 79.9262 144.882 79.8986C144.88 79.872 144.867 79.847 144.847 79.8288C144.826 79.8106 144.799 79.8004 144.771 79.8005Z" fill="black"/>
<path id="Vector_53" d="M149.417 79.8005H148.136L149.275 78.7279C149.296 78.708 149.307 78.6815 149.307 78.6538C149.307 78.6262 149.296 78.5996 149.275 78.5797C149.265 78.57 149.253 78.5622 149.239 78.5569C149.226 78.5516 149.211 78.5489 149.197 78.5489C149.182 78.5489 149.168 78.5516 149.154 78.5569C149.141 78.5622 149.128 78.57 149.118 78.5797L147.979 79.6544V78.4441C147.979 78.4164 147.967 78.3899 147.946 78.3703C147.926 78.3508 147.898 78.3398 147.868 78.3398C147.839 78.3403 147.811 78.3515 147.791 78.3709C147.77 78.3904 147.758 78.4166 147.758 78.4441V79.6544L146.62 78.5735C146.61 78.5637 146.598 78.5559 146.584 78.5506C146.571 78.5453 146.556 78.5426 146.542 78.5426C146.527 78.5426 146.513 78.5453 146.499 78.5506C146.486 78.5559 146.474 78.5637 146.463 78.5735C146.443 78.5933 146.432 78.6199 146.432 78.6476C146.432 78.6752 146.443 78.7018 146.463 78.7216L147.603 79.7942H146.32C146.29 79.7947 146.263 79.8059 146.242 79.8254C146.221 79.8448 146.21 79.871 146.209 79.8986C146.209 79.9262 146.221 79.9528 146.241 79.9723C146.262 79.9919 146.29 80.0029 146.32 80.0029H147.603L146.463 81.0775C146.443 81.0974 146.432 81.124 146.432 81.1516C146.432 81.1793 146.443 81.2058 146.463 81.2257C146.485 81.2445 146.513 81.2549 146.542 81.2549C146.571 81.2549 146.599 81.2445 146.62 81.2257L147.758 80.151V81.3593C147.758 81.3869 147.769 81.4135 147.79 81.433C147.811 81.4526 147.839 81.4636 147.868 81.4636C147.898 81.4636 147.926 81.4526 147.946 81.433C147.967 81.4135 147.979 81.3869 147.979 81.3593V80.151L149.118 81.2257C149.14 81.2445 149.168 81.2549 149.197 81.2549C149.226 81.2549 149.254 81.2445 149.275 81.2257C149.296 81.2058 149.307 81.1793 149.307 81.1516C149.307 81.124 149.296 81.0974 149.275 81.0775L148.136 80.0029H149.417C149.446 80.0029 149.474 79.9919 149.495 79.9723C149.516 79.9528 149.527 79.9262 149.527 79.8986C149.526 79.872 149.513 79.847 149.493 79.8288C149.472 79.8106 149.445 79.8004 149.417 79.8005Z" fill="black"/>
<path id="Vector_54" d="M154.063 79.8005H152.782L153.921 78.7279C153.942 78.708 153.953 78.6815 153.953 78.6538C153.953 78.6262 153.942 78.5996 153.921 78.5797C153.911 78.57 153.899 78.5622 153.885 78.5569C153.872 78.5516 153.857 78.5489 153.843 78.5489C153.828 78.5489 153.814 78.5516 153.8 78.5569C153.787 78.5622 153.774 78.57 153.764 78.5797L152.625 79.6544V78.4441C152.625 78.4164 152.613 78.3899 152.592 78.3703C152.572 78.3508 152.544 78.3398 152.514 78.3398C152.485 78.3403 152.457 78.3515 152.437 78.3709C152.416 78.3904 152.404 78.4166 152.404 78.4441V79.6544L151.266 78.5735C151.256 78.5637 151.244 78.5559 151.23 78.5506C151.217 78.5453 151.202 78.5426 151.188 78.5426C151.173 78.5426 151.159 78.5453 151.145 78.5506C151.132 78.5559 151.12 78.5637 151.109 78.5735C151.089 78.5933 151.077 78.6199 151.077 78.6476C151.077 78.6752 151.089 78.7018 151.109 78.7216L152.249 79.7942H150.966C150.936 79.7947 150.909 79.8059 150.888 79.8254C150.867 79.8448 150.855 79.871 150.855 79.8986C150.855 79.9262 150.867 79.9528 150.887 79.9723C150.908 79.9919 150.936 80.0029 150.966 80.0029H152.249L151.109 81.0775C151.089 81.0974 151.077 81.124 151.077 81.1516C151.077 81.1793 151.089 81.2058 151.109 81.2257C151.131 81.2445 151.159 81.2549 151.188 81.2549C151.217 81.2549 151.245 81.2445 151.266 81.2257L152.404 80.151V81.3593C152.404 81.3869 152.415 81.4135 152.436 81.433C152.457 81.4526 152.485 81.4636 152.514 81.4636C152.544 81.4636 152.572 81.4526 152.592 81.433C152.613 81.4135 152.625 81.3869 152.625 81.3593V80.151L153.764 81.2257C153.785 81.2445 153.814 81.2549 153.843 81.2549C153.872 81.2549 153.9 81.2445 153.921 81.2257C153.942 81.2058 153.953 81.1793 153.953 81.1516C153.953 81.124 153.942 81.0974 153.921 81.0775L152.782 80.0029H154.063C154.092 80.0029 154.12 79.9919 154.141 79.9723C154.162 79.9528 154.173 79.9262 154.173 79.8986C154.172 79.872 154.159 79.847 154.139 79.8288C154.118 79.8106 154.091 79.8004 154.063 79.8005Z" fill="black"/>
<path id="Vector_55" d="M158.709 79.8005H157.428L158.567 78.7279C158.588 78.708 158.599 78.6815 158.599 78.6538C158.599 78.6262 158.588 78.5996 158.567 78.5797C158.557 78.57 158.545 78.5622 158.531 78.5569C158.518 78.5516 158.503 78.5489 158.489 78.5489C158.474 78.5489 158.46 78.5516 158.446 78.5569C158.433 78.5622 158.42 78.57 158.41 78.5797L157.271 79.6544V78.4441C157.271 78.4164 157.259 78.3899 157.238 78.3703C157.218 78.3508 157.19 78.3398 157.16 78.3398C157.131 78.3403 157.103 78.3515 157.083 78.3709C157.062 78.3904 157.05 78.4166 157.05 78.4441V79.6544L155.912 78.5735C155.902 78.5637 155.89 78.5559 155.876 78.5506C155.863 78.5453 155.848 78.5426 155.834 78.5426C155.819 78.5426 155.805 78.5453 155.791 78.5506C155.778 78.5559 155.766 78.5637 155.755 78.5735C155.735 78.5933 155.723 78.6199 155.723 78.6476C155.723 78.6752 155.735 78.7018 155.755 78.7216L156.895 79.7942H155.612C155.582 79.7947 155.555 79.8059 155.534 79.8254C155.513 79.8448 155.501 79.871 155.501 79.8986C155.501 79.9262 155.513 79.9528 155.533 79.9723C155.554 79.9919 155.582 80.0029 155.612 80.0029H156.895L155.755 81.0775C155.735 81.0974 155.723 81.124 155.723 81.1516C155.723 81.1793 155.735 81.2058 155.755 81.2257C155.777 81.2445 155.805 81.2549 155.834 81.2549C155.863 81.2549 155.891 81.2445 155.912 81.2257L157.05 80.151V81.3593C157.05 81.3869 157.061 81.4135 157.082 81.433C157.103 81.4526 157.131 81.4636 157.16 81.4636C157.19 81.4636 157.218 81.4526 157.238 81.433C157.259 81.4135 157.271 81.3869 157.271 81.3593V80.151L158.41 81.2257C158.431 81.2445 158.46 81.2549 158.489 81.2549C158.518 81.2549 158.546 81.2445 158.567 81.2257C158.588 81.2058 158.599 81.1793 158.599 81.1516C158.599 81.124 158.588 81.0974 158.567 81.0775L157.428 80.0029H158.709C158.738 80.0029 158.766 79.9919 158.787 79.9723C158.808 79.9528 158.819 79.9262 158.819 79.8986C158.818 79.872 158.805 79.847 158.785 79.8288C158.764 79.8106 158.737 79.8004 158.709 79.8005Z" fill="black"/>
<path id="Vector_56" d="M163.355 79.8005H162.074L163.213 78.7279C163.234 78.708 163.245 78.6815 163.245 78.6538C163.245 78.6262 163.234 78.5996 163.213 78.5797C163.203 78.57 163.191 78.5622 163.177 78.5569C163.164 78.5516 163.149 78.5489 163.135 78.5489C163.12 78.5489 163.106 78.5516 163.092 78.5569C163.079 78.5622 163.066 78.57 163.056 78.5797L161.917 79.6544V78.4441C161.917 78.4164 161.905 78.3899 161.884 78.3703C161.864 78.3508 161.835 78.3398 161.806 78.3398C161.777 78.3403 161.749 78.3515 161.729 78.3709C161.708 78.3904 161.696 78.4166 161.696 78.4441V79.6544L160.558 78.5735C160.548 78.5637 160.536 78.5559 160.522 78.5506C160.509 78.5453 160.494 78.5426 160.48 78.5426C160.465 78.5426 160.451 78.5453 160.437 78.5506C160.424 78.5559 160.412 78.5637 160.401 78.5735C160.381 78.5933 160.369 78.6199 160.369 78.6476C160.369 78.6752 160.381 78.7018 160.401 78.7216L161.541 79.7942H160.257C160.228 79.7947 160.201 79.8059 160.18 79.8254C160.159 79.8448 160.147 79.871 160.147 79.8986C160.147 79.9262 160.159 79.9528 160.179 79.9723C160.2 79.9919 160.228 80.0029 160.257 80.0029H161.541L160.401 81.0775C160.381 81.0974 160.369 81.124 160.369 81.1516C160.369 81.1793 160.381 81.2058 160.401 81.2257C160.423 81.2445 160.451 81.2549 160.48 81.2549C160.509 81.2549 160.537 81.2445 160.558 81.2257L161.696 80.151V81.3593C161.696 81.3869 161.707 81.4135 161.728 81.433C161.749 81.4526 161.777 81.4636 161.806 81.4636C161.835 81.4636 161.864 81.4526 161.884 81.433C161.905 81.4135 161.917 81.3869 161.917 81.3593V80.151L163.056 81.2257C163.077 81.2445 163.106 81.2549 163.135 81.2549C163.164 81.2549 163.192 81.2445 163.213 81.2257C163.234 81.2058 163.245 81.1793 163.245 81.1516C163.245 81.124 163.234 81.0974 163.213 81.0775L162.074 80.0029H163.355C163.384 80.0029 163.412 79.9919 163.433 79.9723C163.454 79.9528 163.465 79.9262 163.465 79.8986C163.464 79.872 163.451 79.847 163.431 79.8288C163.41 79.8106 163.383 79.8004 163.355 79.8005Z" fill="black"/>
<path id="Vector_57" d="M168.001 79.8005H166.72L167.859 78.7279C167.88 78.708 167.891 78.6815 167.891 78.6538C167.891 78.6262 167.88 78.5996 167.859 78.5797C167.849 78.57 167.837 78.5622 167.823 78.5569C167.81 78.5516 167.795 78.5489 167.781 78.5489C167.766 78.5489 167.752 78.5516 167.738 78.5569C167.725 78.5622 167.712 78.57 167.702 78.5797L166.563 79.6544V78.4441C166.563 78.4164 166.551 78.3899 166.53 78.3703C166.51 78.3508 166.481 78.3398 166.452 78.3398C166.423 78.3403 166.395 78.3515 166.375 78.3709C166.354 78.3904 166.342 78.4166 166.342 78.4441V79.6544L165.204 78.5735C165.194 78.5637 165.182 78.5559 165.168 78.5506C165.155 78.5453 165.14 78.5426 165.126 78.5426C165.111 78.5426 165.097 78.5453 165.083 78.5506C165.07 78.5559 165.058 78.5637 165.047 78.5735C165.027 78.5933 165.015 78.6199 165.015 78.6476C165.015 78.6752 165.027 78.7018 165.047 78.7216L166.187 79.7942H164.903C164.874 79.7947 164.846 79.8059 164.826 79.8254C164.805 79.8448 164.793 79.871 164.793 79.8986C164.793 79.9262 164.804 79.9528 164.825 79.9723C164.846 79.9919 164.874 80.0029 164.903 80.0029H166.187L165.047 81.0775C165.027 81.0974 165.015 81.124 165.015 81.1516C165.015 81.1793 165.027 81.2058 165.047 81.2257C165.069 81.2445 165.097 81.2549 165.126 81.2549C165.155 81.2549 165.183 81.2445 165.204 81.2257L166.342 80.151V81.3593C166.342 81.3869 166.353 81.4135 166.374 81.433C166.395 81.4526 166.423 81.4636 166.452 81.4636C166.481 81.4636 166.51 81.4526 166.53 81.433C166.551 81.4135 166.563 81.3869 166.563 81.3593V80.151L167.702 81.2257C167.723 81.2445 167.751 81.2549 167.781 81.2549C167.81 81.2549 167.838 81.2445 167.859 81.2257C167.88 81.2058 167.891 81.1793 167.891 81.1516C167.891 81.124 167.88 81.0974 167.859 81.0775L166.72 80.0029H168.001C168.03 80.0029 168.058 79.9919 168.079 79.9723C168.1 79.9528 168.111 79.9262 168.111 79.8986C168.11 79.872 168.097 79.847 168.077 79.8288C168.056 79.8106 168.029 79.8004 168.001 79.8005Z" fill="black"/>
<path id="Vector_58" d="M203.618 105.185C203.611 104.933 203.578 104.682 203.518 104.436C203.319 103.731 202.87 102.878 202.131 102.665C201.368 102.444 200.631 102.151 199.932 101.788C199.799 99.5513 200.343 97.2621 199.75 95.094C199.529 94.3011 199.164 93.5415 199.067 92.7298C198.945 91.7198 199.237 90.6431 198.81 89.7124C198.474 88.9779 197.735 88.4603 196.941 88.1891C196.147 87.9178 195.29 87.8448 194.447 87.7717C193.385 87.6903 189.947 87.3064 188.748 88.2016C188.666 88.2622 188.591 88.3323 188.527 88.4103V88.4103C188.501 88.4447 188.477 88.481 188.456 88.5188L188.445 88.5355C188.421 88.579 188.401 88.6243 188.386 88.6711V88.6711C188.369 88.7223 188.356 88.7746 188.348 88.8276C188.348 88.8443 188.348 88.861 188.348 88.8777C188.348 88.8944 188.348 88.9507 188.348 88.9883V89.0446C188.348 89.0822 188.348 89.1197 188.348 89.1594C188.348 89.199 188.348 89.1886 188.348 89.2032C188.363 89.391 188.392 89.5788 188.392 89.7645C188.395 89.857 188.386 89.9494 188.366 90.04C188.292 90.2861 188.167 90.5159 187.998 90.7161V90.7161L187.959 90.7703C187.934 90.8037 187.91 90.835 187.888 90.8684C187.866 90.9018 187.848 90.9268 187.83 90.9561C187.813 90.9853 187.795 91.0041 187.779 91.0312C187.758 91.0656 187.739 91.1011 187.722 91.1376C187.722 91.1585 187.697 91.1773 187.689 91.1981C187.661 91.2545 187.639 91.3132 187.622 91.3734C187.57 91.5547 187.566 91.7452 187.609 91.9285C187.669 92.1626 187.771 92.385 187.912 92.5858C187.967 92.6714 188.027 92.7548 188.089 92.8383L188.244 93.0365C188.215 93.2301 188.199 93.4253 188.197 93.6208C188.198 94.2742 188.355 94.9191 188.658 95.5069C188.96 96.0946 189.401 96.6099 189.945 97.0138C190.033 97.8951 190.023 98.7825 189.916 99.6619C189.897 99.8455 189.872 100.031 189.846 100.215C189.819 100.398 189.799 100.52 189.773 100.672C189.449 100.716 189.119 100.692 188.806 100.603C188.661 100.542 188.514 100.489 188.363 100.442C187.72 100.29 187.063 100.895 186.425 100.712C186.425 100.741 186.408 100.768 186.397 100.795C186.264 100.717 186.111 100.674 185.954 100.672C185.576 100.655 185.268 100.396 184.994 100.152L184.151 99.4031C184.096 99.3573 184.047 99.3054 184.005 99.2487C183.96 99.1676 183.926 99.0813 183.903 98.992C183.762 98.5601 183.419 98.2158 183.087 97.8882C183.024 97.8134 182.941 97.7564 182.846 97.7233C182.809 97.7181 182.772 97.7181 182.735 97.7233C182.713 97.6942 182.688 97.6663 182.662 97.6398C182.605 97.5778 182.544 97.5193 182.478 97.4646C182.076 97.114 182.036 96.8135 181.686 96.4212C181.382 96.047 181.105 95.6531 180.859 95.2422C180.83 95.0231 180.79 94.7977 180.742 94.5703C180.63 94.0495 180.468 93.5396 180.257 93.047L179.815 92.1225L179.764 92.1705C179.443 91.7198 179.1 91.4736 178.793 91.532C178.277 91.6322 178.023 92.5754 178.105 93.8086L178.282 95.0607C178.282 95.092 178.297 95.1232 178.306 95.1546C178.274 95.3029 178.258 95.4539 178.257 95.6053C178.257 95.7806 178.43 95.9099 178.521 96.0664C178.666 96.2785 178.743 96.5256 178.742 96.778C178.731 96.8678 178.702 96.9533 178.698 97.041C178.71 97.237 178.782 97.4255 178.906 97.5835L180.012 99.3363L180.233 99.7036L180.246 99.7203C180.316 99.8485 180.418 99.9587 180.543 100.042C180.586 100.481 180.71 100.909 180.908 101.308C180.945 101.388 180.987 101.463 181.032 101.538C181.329 101.999 181.679 102.428 182.076 102.817L182.602 103.374C183.122 103.921 183.642 104.47 184.206 104.975C184.408 105.177 184.652 105.339 184.923 105.448C185.056 105.498 185.2 105.515 185.342 105.495C185.483 105.476 185.616 105.421 185.728 105.338C185.728 105.597 185.728 105.855 185.728 106.114C185.811 106.119 185.89 106.144 185.958 106.187C186.026 106.231 186.081 106.291 186.117 106.361C186.152 106.43 186.168 106.508 186.161 106.586C186.154 106.663 186.125 106.737 186.078 106.801C185.613 107.925 185.144 109.06 184.441 110.068C184.937 110.346 185.398 110.677 185.813 111.055C186.082 111.337 186.321 111.642 186.527 111.967C186.547 112.122 186.563 112.274 186.571 112.426C186.735 114.914 185.715 117.382 184.801 119.753C184.538 120.425 184.251 121.128 184.273 121.827C184.099 121.928 183.934 122.04 183.777 122.163C183.959 122.61 183.888 123.008 183.868 123.486C183.861 123.772 183.799 124.055 183.684 124.321C183.588 124.505 183.482 124.684 183.366 124.857C182.793 125.811 182.667 126.944 182.552 128.033C182.483 128.69 182.753 129.494 182.436 130.082C181.89 131.092 181.406 132.169 181.33 133.292C181.328 133.544 181.294 133.796 181.229 134.041C181.16 134.249 181.038 134.427 180.976 134.631C180.913 134.905 180.898 135.187 180.932 135.466C180.974 136.466 180.817 137.465 180.467 138.41C180.191 139.155 179.886 139.952 180.102 140.718C179.569 141.247 179.239 141.93 179.167 142.657C179.161 142.843 179.137 143.028 179.096 143.21C179.028 143.396 178.939 143.574 178.83 143.742C178.385 144.507 178.176 145.375 178.229 146.246C177.565 147.095 177.233 148.143 177.036 149.184C176.839 150.225 176.753 151.285 176.501 152.314C176.164 153.675 175.556 155.05 175.437 156.444C174.72 156.876 174.41 157.712 174.273 158.503C174.136 159.294 174.114 160.125 173.762 160.855C173.58 161.235 173.319 161.575 173.147 161.963C173.026 162.272 172.937 162.592 172.881 162.917C172.775 163.426 172.682 163.993 172.813 164.482C172.625 164.669 172.406 164.826 172.164 164.947C172.2 164.818 172.229 164.688 172.253 164.557C171.682 165.045 170.647 164.874 170.191 165.46C170.054 165.649 170.001 165.881 170.042 166.107C170.083 166.332 170.216 166.534 170.412 166.669C170.555 166.751 170.709 166.813 170.87 166.854C171.976 167.188 173.114 167.524 174.251 167.347C174.385 167.333 174.515 167.294 174.633 167.232C174.781 167.129 174.903 166.997 174.99 166.844C175.16 166.589 175.33 166.335 175.498 166.08C175.906 166.195 176.32 166.286 176.74 166.354C176.782 166.687 176.813 167.021 176.828 167.355C177.049 167.397 177.346 167.409 177.45 167.215C177.481 167.142 177.494 167.063 177.487 166.984C177.487 166.836 177.51 166.639 177.523 166.439H177.567C178.242 166.465 178.914 166.337 179.525 166.066C179.288 164.217 180.069 162.41 180.746 160.661C181.461 158.82 182.074 156.947 182.691 155.073C183.133 153.754 183.622 152.477 184.056 151.156C184.602 149.487 185.15 147.817 185.7 146.148C185.939 145.413 186.18 144.687 186.454 143.957C187.032 142.479 187.717 141.04 188.505 139.652C188.726 139.257 188.947 138.867 189.129 138.458C189.35 137.96 189.507 137.438 189.684 136.922C190.07 135.865 190.534 134.834 191.074 133.838C191.089 133.811 191.1 133.786 191.116 133.761C191.295 134.452 191.474 135.153 191.593 135.848C191.755 136.7 191.768 137.571 191.631 138.427C191.525 139.009 191.324 139.585 191.348 140.176C191.381 140.992 191.843 141.732 192.071 142.519C192.218 143.108 192.301 143.709 192.319 144.314C192.381 145.253 192.921 146.306 192.54 147.177C191.357 149.933 191.93 153.047 191.255 155.941C190.908 157.427 189.843 158.823 189.928 160.342C189.987 161.42 190.087 162.495 190.228 163.568C190.263 163.906 190.356 164.237 190.505 164.546C190.593 164.709 190.695 164.866 190.808 165.014C190.711 165.049 190.629 165.143 190.558 165.342C190.377 165.863 190.558 166.51 191.049 166.802C191.249 166.903 191.465 166.974 191.689 167.011C191.989 167.092 192.301 167.132 192.613 167.132C192.711 167.127 192.807 167.116 192.903 167.099C193.245 167.234 193.594 167.352 193.95 167.453C193.95 167.539 193.967 167.624 193.978 167.71C193.979 167.755 193.99 167.799 194.009 167.839C194.029 167.88 194.058 167.916 194.093 167.946C194.149 167.97 194.21 167.98 194.27 167.975H195.472C195.472 167.881 195.472 167.785 195.472 167.691C195.609 167.705 195.748 167.691 195.88 167.651C196.011 167.61 196.132 167.545 196.235 167.457C196.341 167.33 196.417 167.182 196.456 167.023C196.784 165.976 197.109 164.928 197.432 163.879C197.819 162.719 197.98 161.503 197.908 160.29C197.481 156.444 198.419 152.585 198.113 148.729C197.93 146.411 198.056 144.081 198.489 141.793C198.589 141.275 198.711 140.749 198.755 140.234C198.852 139.262 198.733 138.279 198.806 137.313C198.83 136.975 198.879 136.639 198.923 136.303C199.226 134.217 199.385 132.116 199.399 130.011C199.392 129.314 199.346 128.617 199.262 127.924C199.492 127.869 199.702 127.753 199.865 127.591C200.062 127.349 200.012 127.008 200.009 126.7C200.009 125.961 200.339 125.264 200.604 124.567C200.945 123.606 201.224 122.626 201.441 121.633C201.669 120.833 201.794 120.01 201.812 119.181C201.812 119.098 201.808 119.014 201.799 118.931C201.882 118.876 201.952 118.805 202.003 118.722C202.06 118.6 202.096 118.469 202.109 118.336C202.188 117.804 202.27 117.27 202.35 116.735C202.409 116.353 202.467 115.971 202.525 115.59L203.228 110.959C203.288 110.557 203.35 110.156 203.41 109.755L203.593 108.558C203.613 108.416 203.635 108.274 203.651 108.14C204.191 107.289 203.675 106.154 203.618 105.185ZM197.748 122.522C197.487 121.938 197.244 121.339 197.306 120.709H197.281C197.34 120.515 197.33 120.308 197.253 120.12C197.184 119.968 197.065 119.838 196.992 119.686C196.913 119.5 196.873 119.302 196.872 119.102C196.817 117.833 196.923 116.562 197.189 115.316C197.217 115.17 197.248 115.022 197.277 114.876C197.37 114.826 197.455 114.763 197.529 114.69C197.646 114.565 197.742 114.425 197.815 114.273C198.065 113.799 198.293 113.317 198.503 112.827C198.571 112.668 198.671 112.485 198.841 112.445C198.806 113.666 198.939 114.912 198.412 116.013C198.312 116.191 198.238 116.381 198.191 116.577C198.142 116.888 198.279 117.203 198.231 117.512C198.206 117.672 198.133 117.821 198.104 117.979C198.083 118.057 198.083 118.139 198.106 118.217C198.128 118.294 198.172 118.365 198.233 118.422C198.262 118.441 198.294 118.456 198.328 118.467C198.315 118.551 198.304 118.636 198.295 118.718C198.277 118.889 198.268 119.05 198.257 119.15C198.206 119.66 198.186 120.173 198.197 120.686C198.197 121.239 198.219 121.792 198.211 122.355C198.219 122.517 198.19 122.678 198.127 122.829C198.083 122.906 198.026 122.977 197.958 123.037C197.894 122.85 197.823 122.685 197.748 122.522Z" fill="url(#paint4_linear)"/>
<path id="Vector_59" d="M180.284 98.3096C180.959 98.1791 181.189 96.6117 180.798 94.8087C180.406 93.0057 179.541 91.6498 178.866 91.7803C178.191 91.9107 177.961 93.4782 178.353 95.2812C178.744 97.0842 179.609 98.4401 180.284 98.3096Z" fill="#FBBEBE"/>
<path id="Vector_60" d="M190.593 165.381C190.412 165.899 190.593 166.546 191.085 166.827C191.284 166.927 191.498 166.998 191.72 167.036C192.02 167.116 192.33 167.156 192.642 167.155C193.025 167.138 193.392 166.996 193.775 166.946C193.819 166.936 193.866 166.942 193.905 166.963C193.925 166.982 193.939 167.005 193.947 167.031C193.956 167.056 193.958 167.083 193.954 167.109C193.958 167.314 193.974 167.519 194.003 167.722C194.003 167.767 194.014 167.811 194.033 167.852C194.053 167.893 194.082 167.929 194.118 167.958C194.173 167.983 194.234 167.993 194.295 167.988H195.494C195.521 166.994 195.406 166.001 195.151 165.037C195.134 164.963 195.104 164.892 195.062 164.828C194.961 164.723 194.827 164.65 194.68 164.619C194.387 164.504 194.07 164.452 193.753 164.467C193.366 164.515 193.043 164.751 192.713 164.947C192.383 165.143 191.934 165.316 191.534 165.216C191.133 165.116 190.799 164.801 190.593 165.381Z" fill="#3F3D56"/>
<path id="Vector_61" d="M172.987 164.465C172.65 164.806 172.237 165.071 171.777 165.241L171.574 165.333C171.546 165.343 171.522 165.362 171.505 165.385C171.501 165.402 171.501 165.418 171.505 165.435C171.509 165.451 171.516 165.466 171.527 165.479C171.697 165.726 171.947 165.914 172.24 166.015C172.533 166.116 172.853 166.123 173.151 166.036C173.283 166.005 173.405 165.945 173.507 165.861C173.676 165.672 173.773 165.436 173.782 165.189C173.849 164.935 173.837 164.668 173.748 164.419C173.441 163.766 173.328 164.062 172.987 164.465Z" fill="#FBBEBE"/>
<path id="Vector_62" d="M177.585 167.036C177.592 167.115 177.579 167.194 177.547 167.268C177.443 167.46 177.153 167.449 176.928 167.407C176.893 166.699 176.803 165.995 176.656 165.3C176.226 165.281 175.917 165.665 175.687 166.009L175.094 166.896C175.008 167.049 174.887 167.181 174.74 167.284C174.621 167.345 174.491 167.384 174.357 167.399C173.224 167.576 172.08 167.24 170.987 166.907C170.826 166.866 170.672 166.804 170.53 166.723C170.334 166.588 170.202 166.387 170.161 166.162C170.12 165.937 170.173 165.706 170.308 165.517C170.766 164.933 171.795 165.099 172.366 164.615C172.306 164.956 172.208 165.29 172.074 165.611C172.837 165.502 173.35 164.843 173.965 164.402C174.12 164.279 174.306 164.195 174.505 164.16C174.654 164.149 174.804 164.163 174.948 164.204C175.657 164.373 176.32 164.681 176.894 165.108C177.127 165.281 177.49 165.525 177.591 165.792C177.7 166.112 177.585 166.696 177.585 167.036Z" fill="#3F3D56"/>
<path id="Vector_63" d="M192.804 98.1866C195.328 98.1866 197.374 96.2564 197.374 93.8754C197.374 91.4944 195.328 89.5642 192.804 89.5642C190.279 89.5642 188.233 91.4944 188.233 93.8754C188.233 96.2564 190.279 98.1866 192.804 98.1866Z" fill="#FBBEBE"/>
<path id="Vector_64" d="M201.808 119.329C201.79 120.153 201.666 120.973 201.439 121.769C201.222 122.757 200.943 123.733 200.602 124.69C200.339 125.385 200.009 126.082 200.012 126.819C200.012 127.125 200.065 127.465 199.866 127.707C199.688 127.877 199.465 127.998 199.22 128.056C199.097 128.087 198.984 128.144 198.89 128.223C198.795 128.303 198.722 128.402 198.675 128.513C198.468 128.22 198.312 127.897 198.215 127.557C197.818 126.411 197.45 125.258 197.109 124.1C197.078 124.033 197.064 123.96 197.07 123.887C197.075 123.815 197.099 123.744 197.14 123.682C197.196 123.636 197.262 123.601 197.332 123.58C197.559 123.493 197.767 123.367 197.945 123.208C198.029 123.138 198.098 123.054 198.149 122.96C198.213 122.811 198.242 122.65 198.235 122.489C198.235 121.936 198.235 121.385 198.22 120.832C198.21 120.321 198.231 119.811 198.281 119.302C198.281 119.202 198.301 119.041 198.319 118.87C198.352 118.543 198.419 118.163 198.607 118.035C198.888 117.858 199.728 118.096 200.047 118.138C200.596 118.209 201.153 118.292 201.689 118.39C201.766 118.698 201.806 119.013 201.808 119.329Z" fill="#87868C"/>
<path id="Vector_65" d="M183.352 98.702C183.175 99.0359 182.751 99.1966 182.423 99.4073L181.302 100.133C181.227 100.197 181.139 100.246 181.043 100.277C180.948 100.308 180.847 100.32 180.746 100.313C180.655 100.281 180.571 100.232 180.5 100.17C180.429 100.107 180.372 100.032 180.333 99.9478C180.333 99.9422 180.333 99.9366 180.333 99.9311L180.1 99.5638L178.994 97.8152C178.871 97.6586 178.8 97.4714 178.788 97.2768C178.788 97.1871 178.822 97.1036 178.83 97.0139C178.833 96.7618 178.756 96.5147 178.609 96.3044C178.521 96.1479 178.344 96.0185 178.348 95.8432C178.34 95.6129 178.382 95.3834 178.472 95.1692C178.588 94.9711 178.755 94.8033 178.956 94.6809C179.06 94.61 179.167 94.5432 179.277 94.4722C179.336 94.4344 179.401 94.4062 179.47 94.3888C179.653 94.3533 179.835 94.4973 180.021 94.5035C180.819 95.0085 181.127 95.9642 181.755 96.6529C182.109 97.0452 182.144 97.3457 182.545 97.6962C182.609 97.7505 182.671 97.8089 182.731 97.8694C182.81 97.9509 182.877 98.0421 182.93 98.1407C183.003 98.3201 183.443 98.5309 183.352 98.702Z" fill="#87868C"/>
<path id="Vector_66" d="M191.197 98.1887C191.527 98.846 191.784 99.568 191.689 100.29C191.669 100.486 191.603 100.675 191.496 100.843C191.178 101.304 190.509 101.388 189.928 101.415C189.805 101.405 189.682 101.418 189.565 101.454C189.448 101.49 189.339 101.548 189.246 101.623C189.168 101.73 189.13 101.858 189.138 101.987C189.146 102.116 189.198 102.239 189.288 102.337C189.475 102.525 189.707 102.668 189.965 102.754C190.886 103.136 191.879 103.451 192.879 103.364C193.343 103.322 193.795 103.195 194.257 103.13C194.761 103.079 195.268 103.052 195.775 103.051C196.377 103.03 196.976 102.974 197.576 102.917L199.164 102.769C199.251 102.77 199.335 102.741 199.401 102.688C199.518 102.558 199.368 102.368 199.222 102.27C198.379 101.682 197.306 101.277 196.826 100.392C196.604 99.9749 196.536 99.4783 196.372 99.0275C196.208 98.5768 195.947 98.1699 195.846 97.7108C195.791 97.3081 195.767 96.9023 195.773 96.4963C195.778 96.087 195.62 95.6907 195.33 95.3862C195.014 95.1087 194.556 95.0377 194.127 95.021C193.069 94.9772 191.943 95.2151 191.193 95.9183C190.992 96.1082 190.819 96.3357 190.611 96.5068C190.403 96.6779 190.12 96.728 190.257 96.9533C190.394 97.1787 190.664 97.3185 190.81 97.5168C190.958 97.7307 191.088 97.9553 191.197 98.1887V98.1887Z" fill="#FBBEBE"/>
<path id="Vector_67" d="M200.208 104.259C199.929 105.866 199.476 107.441 198.854 108.96C198.542 109.646 198.276 110.35 198.058 111.068C197.888 111.715 197.921 112.408 197.764 113.057C197.569 113.864 197.374 114.674 197.217 115.488C196.954 116.73 196.848 117.998 196.903 119.265C196.904 119.464 196.944 119.662 197.023 119.847C197.096 119.997 197.213 120.126 197.281 120.281C197.333 120.416 197.354 120.561 197.343 120.704C197.332 120.848 197.29 120.988 197.22 121.115C197.106 121.354 196.952 121.574 196.764 121.767C194.702 122.347 192.496 122.157 190.348 122.28C188.368 122.393 186.366 122.777 184.414 122.457C184.193 121.623 184.563 120.748 184.879 119.934C185.797 117.57 186.813 115.108 186.649 112.631C186.632 112.342 186.597 112.054 186.545 111.769C186.224 110.014 186.574 108.197 187.133 106.496C187.481 105.436 187.465 104.307 187.386 103.203C187.346 102.845 187.341 102.484 187.37 102.124C187.402 101.757 187.547 101.407 187.786 101.116C187.786 101.102 187.806 101.087 187.817 101.073C187.828 101.058 187.914 101.06 187.983 101.073C188 101.08 188.019 101.083 188.038 101.083C188.057 101.083 188.076 101.08 188.094 101.073L188.118 101.058C188.127 101.052 188.138 101.048 188.15 101.048C188.161 101.048 188.173 101.052 188.182 101.058C188.233 101.087 188.262 101.187 188.372 101.206C188.536 101.229 188.7 101.244 188.866 101.25C189.064 101.255 189.262 101.282 189.454 101.329H189.481C189.768 101.375 190.064 101.351 190.339 101.26C190.522 101.217 190.699 101.153 190.866 101.068C190.914 101.018 191.22 100.972 191.282 100.937C191.483 100.822 191.439 100.284 191.481 100.063C191.504 99.8407 191.56 99.623 191.647 99.4156C191.747 99.2626 191.886 99.1352 192.051 99.0447C192.217 98.9541 192.403 98.903 192.593 98.896C192.974 98.8875 193.355 98.9197 193.728 98.992C194.554 99.1026 195.399 99.0839 196.208 99.2633C196.616 99.353 197.06 99.4887 197.434 99.3134C197.536 99.3363 197.551 99.4198 197.551 99.5221C197.542 99.6192 197.521 99.7151 197.489 99.8079C197.348 100.384 197.828 100.914 198.27 101.331C198.457 101.528 198.678 101.694 198.923 101.822C199.144 101.918 199.366 101.957 199.587 102.062C199.766 102.152 199.918 102.283 200.029 102.443C200.157 102.627 200.243 102.834 200.281 103.051C200.329 103.454 200.304 103.863 200.208 104.259Z" fill="#87868C"/>
<path id="Vector_68" opacity="0.1" d="M200.208 104.259C199.929 105.866 199.476 107.441 198.854 108.96C198.542 109.646 198.276 110.35 198.058 111.068C197.888 111.715 197.921 112.408 197.764 113.057C197.569 113.864 197.374 114.674 197.217 115.488C197.171 115.513 197.122 115.536 197.074 115.556C196.798 115.68 196.507 115.769 196.206 115.819C195.667 115.881 195.121 115.864 194.587 115.769L191.43 115.371C190.169 115.21 188.826 115.016 187.89 114.211C187.37 113.768 187.029 113.184 186.655 112.62C186.638 112.332 186.604 112.044 186.551 111.759C186.231 110.004 186.58 108.186 187.14 106.485C187.487 105.425 187.472 104.296 187.392 103.193C187.353 102.834 187.348 102.473 187.377 102.114C187.409 101.747 187.553 101.397 187.793 101.106C187.857 101.088 187.923 101.074 187.99 101.064V101.064C188.034 101.056 188.079 101.05 188.124 101.047H188.189C188.263 101.048 188.337 101.056 188.41 101.073C188.561 101.118 188.708 101.171 188.852 101.233H188.879C189.069 101.292 189.268 101.319 189.467 101.312C189.759 101.312 190.06 101.269 190.352 101.25C190.713 101.197 191.082 101.259 191.401 101.427C191.607 101.583 191.802 101.751 191.985 101.93C192.206 102.094 192.456 102.222 192.722 102.308C194.626 102.993 196.739 102.952 198.611 102.191C198.791 102.095 198.995 102.046 199.202 102.049C199.355 102.077 199.499 102.136 199.627 102.22C199.759 102.293 199.89 102.364 200.025 102.429C200.152 102.613 200.238 102.819 200.277 103.036C200.328 103.444 200.305 103.858 200.208 104.259V104.259Z" fill="black"/>
<path id="Vector_69" d="M202.135 102.878C201.254 102.624 200.408 102.274 199.613 101.834C199.486 101.75 199.341 101.692 199.189 101.663C198.981 101.661 198.777 101.71 198.596 101.805C196.724 102.565 194.612 102.607 192.709 101.922C192.443 101.835 192.194 101.707 191.972 101.544C191.788 101.366 191.593 101.198 191.388 101.041C190.66 100.597 189.653 101.118 188.839 100.833C188.695 100.772 188.547 100.718 188.397 100.672C187.753 100.52 187.098 101.125 186.465 100.941C186.23 101.545 186.056 102.168 185.945 102.802C185.855 103.531 185.807 104.264 185.801 104.998C185.801 105.438 185.779 105.878 185.801 106.319C185.879 106.331 185.954 106.358 186.02 106.398C186.086 106.439 186.143 106.492 186.186 106.554C186.215 106.627 186.227 106.705 186.221 106.782C186.215 106.86 186.191 106.935 186.151 107.003C185.689 108.124 185.22 109.257 184.518 110.26C185.013 110.538 185.471 110.869 185.886 111.245C186.66 112.017 187.04 113.1 187.877 113.814C188.819 114.617 190.162 114.814 191.416 114.972L194.574 115.371C195.108 115.465 195.655 115.483 196.195 115.423C196.495 115.371 196.786 115.282 197.06 115.158C197.24 115.087 197.403 114.985 197.543 114.857C197.659 114.733 197.755 114.592 197.828 114.44C198.078 113.968 198.306 113.486 198.516 112.998C198.589 112.825 198.7 112.623 198.899 112.608C200.071 111.61 201.177 110.588 202.35 109.591C202.821 109.222 203.244 108.802 203.609 108.338C204.191 107.527 203.662 106.377 203.609 105.396C203.602 105.145 203.569 104.896 203.509 104.651C203.319 103.94 202.872 103.088 202.135 102.878Z" fill="#B43A3A"/>
<path id="Vector_70" opacity="0.1" d="M183.352 98.702C183.175 99.0359 182.751 99.1966 182.423 99.4073L181.302 100.133C181.227 100.197 181.139 100.246 181.043 100.277C180.948 100.308 180.847 100.32 180.746 100.313C180.655 100.281 180.571 100.232 180.5 100.17C180.429 100.107 180.372 100.032 180.333 99.9478C180.333 99.8998 180.333 99.8476 180.333 99.7975C180.324 99.6286 180.348 99.4597 180.403 99.2988C180.513 99.0628 180.683 98.8563 180.899 98.6978C181.315 98.3258 181.811 98.0414 182.352 97.8632C182.437 97.8322 182.529 97.8235 182.618 97.8381C182.652 97.8466 182.685 97.86 182.715 97.8778C182.794 97.9592 182.861 98.0505 182.914 98.149C183.003 98.3202 183.443 98.5309 183.352 98.702Z" fill="black"/>
<path id="Vector_71" d="M185.994 100.901C185.618 100.885 185.31 100.628 185.036 100.384L184.198 99.6494C184.141 99.6046 184.092 99.5526 184.052 99.495C184.006 99.4138 183.972 99.3276 183.95 99.2383C183.772 98.8168 183.493 98.4397 183.136 98.1365C183.073 98.0617 182.99 98.0053 182.894 97.9737C182.804 97.9581 182.712 97.9668 182.627 97.9988C182.085 98.1767 181.59 98.4612 181.173 98.8335C180.958 98.9921 180.788 99.1985 180.678 99.4344C180.622 99.5952 180.598 99.7642 180.607 99.9332C180.612 100.485 180.743 101.028 180.992 101.527C181.029 101.605 181.071 101.682 181.116 101.757C181.411 102.217 181.76 102.645 182.156 103.032L182.682 103.587C183.2 104.134 183.717 104.68 184.279 105.183C184.481 105.386 184.725 105.547 184.996 105.655C185.132 105.707 185.281 105.723 185.426 105.701C185.572 105.679 185.707 105.62 185.819 105.53C185.925 105.414 186.005 105.279 186.054 105.133C186.394 104.299 186.717 103.431 186.737 102.531C186.742 102.171 186.726 101.811 186.689 101.452C186.655 101.073 186.37 100.924 185.994 100.901Z" fill="#B43A3A"/>
<path id="Vector_72" d="M199.401 130.116C199.388 132.215 199.23 134.311 198.928 136.39C198.883 136.726 198.835 137.062 198.81 137.398C198.737 138.373 198.857 139.351 198.759 140.32C198.709 140.843 198.593 141.363 198.496 141.874C198.064 144.156 197.937 146.48 198.12 148.792C198.425 152.638 197.489 156.485 197.914 160.321C197.966 161.067 197.922 161.816 197.784 162.552C197.705 163.008 197.59 163.459 197.441 163.9C197.118 164.944 196.793 165.988 196.467 167.03C196.429 167.188 196.353 167.337 196.246 167.464C196.133 167.556 196.001 167.624 195.858 167.664C195.715 167.704 195.564 167.715 195.416 167.695C194.14 167.658 192.939 167.138 191.779 166.631C191.646 166.582 191.523 166.511 191.414 166.422C191.173 166.187 191.193 165.815 191.087 165.504C190.981 165.193 190.693 164.901 190.529 164.582C190.395 164.28 190.313 163.959 190.288 163.633C190.141 162.564 190.04 161.492 189.987 160.415C189.903 158.9 190.965 157.506 191.315 156.033C191.978 153.136 191.417 150.031 192.596 147.283C192.967 146.415 192.428 145.363 192.374 144.428C192.355 143.825 192.272 143.225 192.127 142.638C191.905 141.853 191.439 141.115 191.405 140.301C191.381 139.712 191.582 139.139 191.686 138.558C191.824 137.705 191.812 136.835 191.649 135.985C191.532 135.284 191.352 134.583 191.173 133.899L191.133 133.976C190.594 134.97 190.131 135.998 189.746 137.054C189.569 137.565 189.414 138.087 189.193 138.583C189.012 139.001 188.788 139.383 188.569 139.775C187.784 141.158 187.1 142.591 186.523 144.063C186.248 144.785 186.007 145.524 185.768 146.248L184.129 151.256C183.686 152.573 183.202 153.846 182.768 155.16C182.156 157.038 181.543 158.9 180.83 160.736C180.167 162.479 179.377 164.284 179.614 166.124C179.004 166.394 178.334 166.523 177.66 166.498C176.52 166.402 175.401 166.146 174.341 165.738C173.919 165.59 173.481 165.423 173.195 165.095C172.704 164.53 172.826 163.701 172.974 162.981C173.03 162.657 173.119 162.338 173.24 162.03C173.408 161.646 173.682 161.306 173.855 160.926C174.202 160.198 174.224 159.374 174.361 158.583C174.499 157.792 174.804 156.957 175.521 156.527C175.642 155.137 176.249 153.766 176.583 152.408C176.835 151.379 176.919 150.321 177.118 149.278C177.317 148.235 177.638 147.191 178.306 146.346C178.253 145.475 178.462 144.607 178.908 143.842C179.016 143.674 179.104 143.496 179.171 143.31C179.212 143.129 179.236 142.944 179.242 142.759C179.315 142.034 179.644 141.353 180.175 140.825C179.954 140.063 180.262 139.268 180.538 138.529C180.887 137.587 181.044 136.591 181.003 135.593C180.969 135.315 180.983 135.033 181.045 134.758C181.107 134.55 181.229 134.372 181.299 134.172C181.362 133.927 181.396 133.675 181.399 133.423C181.485 132.294 181.97 131.23 182.505 130.222C182.824 129.634 182.554 128.834 182.62 128.179C182.735 127.09 182.861 125.963 183.434 125.013C183.54 124.834 183.656 124.663 183.751 124.477C183.866 124.212 183.928 123.929 183.934 123.643C183.954 123.165 184.025 122.768 183.844 122.324C185.027 121.395 186.642 121.134 188.182 121.072C189.722 121.009 191.279 121.141 192.786 120.832C193.228 120.738 193.671 120.608 194.138 120.546C195.197 120.4 196.273 120.627 197.319 120.853C197.246 121.479 197.489 122.08 197.762 122.662C198.824 125.02 199.381 127.553 199.401 130.116V130.116Z" fill="#7F3DB4"/>
<path id="Vector_73" opacity="0.1" d="M194.191 130.593L191.649 135.985C191.532 135.284 191.352 134.583 191.173 133.899L191.133 133.976V133.863L192.518 130.99L194.191 130.593Z" fill="black"/>
<path id="Vector_74" opacity="0.1" d="M201.808 119.329C201.661 119.433 201.486 119.494 201.304 119.507C201.023 119.516 200.743 119.48 200.476 119.4L198.485 118.931C198.423 118.916 198.362 118.896 198.304 118.87C198.337 118.543 198.403 118.163 198.591 118.035C198.872 117.858 199.713 118.096 200.031 118.138C200.58 118.209 201.138 118.292 201.673 118.39C201.756 118.697 201.801 119.012 201.808 119.329V119.329Z" fill="black"/>
<path id="Vector_75" d="M203.492 106.913C203.534 107.086 203.593 107.258 203.629 107.433C203.688 107.863 203.673 108.299 203.582 108.725L203.401 109.918L203.219 111.118L202.518 115.736L202.346 116.879L202.102 118.476C202.091 118.609 202.055 118.739 201.996 118.86C201.924 118.973 201.822 119.068 201.701 119.135C201.581 119.203 201.444 119.241 201.304 119.246C201.023 119.254 200.744 119.218 200.476 119.139L198.485 118.668C198.398 118.653 198.315 118.621 198.242 118.574C198.181 118.518 198.137 118.447 198.114 118.37C198.092 118.293 198.091 118.211 198.113 118.134C198.142 117.975 198.215 117.827 198.239 117.668C198.288 117.359 198.151 117.042 198.2 116.735C198.247 116.54 198.322 116.351 198.421 116.174C199.085 114.791 198.7 113.176 198.925 111.673C199.128 110.491 199.658 109.379 200.461 108.451C200.956 107.865 201.525 107.338 202.155 106.882C202.403 106.7 202.797 106.327 203.109 106.256C203.509 106.177 203.425 106.65 203.492 106.913Z" fill="#B43A3A"/>
<path id="Vector_76" d="M188.423 88.9382C188.277 89.3764 188.505 89.8585 188.401 90.305C188.288 90.7975 187.797 91.1397 187.658 91.6343C187.436 92.3876 188.113 93.0741 188.609 93.7001C190.445 96.0247 190.204 99.2425 189.576 102.078C189.07 104.354 188.371 106.587 187.485 108.756C187.209 109.43 186.903 110.114 186.359 110.619C187.377 110.344 188.459 110.066 189.478 110.333C190.77 110.671 191.886 111.855 193.195 111.585C193.983 111.421 194.536 110.761 195.244 110.396C196.571 109.722 198.171 110.146 199.651 110.363C199.97 110.434 200.304 110.418 200.613 110.317C200.85 110.197 201.051 110.022 201.197 109.81C201.858 109.01 202.253 108.045 202.335 107.034C202.37 106.531 202.291 106.027 202.104 105.554C201.916 105.082 201.625 104.652 201.248 104.294C200.934 104.015 200.558 103.789 200.317 103.46C200.082 103.075 199.957 102.639 199.952 102.195C199.777 99.8998 200.37 97.5564 199.759 95.3361C199.538 94.5452 199.177 93.7878 199.08 92.9781C198.958 91.9702 199.248 90.8914 198.824 89.9691C198.489 89.2366 197.753 88.717 196.958 88.4499C196.164 88.1828 195.315 88.1077 194.472 88.0326C193.259 87.9366 188.93 87.4462 188.423 88.9382Z" fill="#1C1C20"/>
<g id="Group" opacity="0.1">
<path id="Vector_77" opacity="0.1" d="M189.576 102.078C189.073 104.344 188.377 106.568 187.496 108.729C187.649 108.443 187.777 108.142 187.899 107.844C188.786 105.675 189.485 103.442 189.99 101.166C190.62 98.3285 190.861 95.1149 189.025 92.7882C188.582 92.2332 188.014 91.6322 188.034 90.9811C187.87 91.178 187.743 91.3996 187.658 91.6364C187.436 92.3897 188.113 93.0762 188.609 93.7022C190.445 96.0247 190.204 99.2425 189.576 102.078Z" fill="black"/>
<path id="Vector_78" opacity="0.1" d="M188.428 90.0943C188.605 89.8863 188.737 89.6473 188.817 89.3911C188.851 89.0811 188.842 88.7682 188.79 88.4604C188.62 88.5813 188.492 88.7478 188.423 88.9382C188.293 89.3076 188.443 89.7082 188.428 90.0943Z" fill="black"/>
<path id="Vector_79" opacity="0.1" d="M201.613 108.891C201.467 109.104 201.266 109.277 201.029 109.396C200.72 109.5 200.386 109.515 200.067 109.442C198.587 109.234 196.97 108.804 195.66 109.478C194.95 109.841 194.399 110.5 193.609 110.667C192.301 110.943 191.186 109.76 189.894 109.415C188.978 109.175 188.014 109.374 187.091 109.624C186.908 109.993 186.66 110.33 186.359 110.621C187.377 110.346 188.459 110.068 189.478 110.335C190.77 110.674 191.886 111.857 193.195 111.588C193.983 111.423 194.536 110.763 195.244 110.398C196.571 109.724 198.171 110.148 199.651 110.365C199.97 110.436 200.304 110.42 200.613 110.319C200.85 110.199 201.051 110.024 201.197 109.812C201.598 109.313 201.908 108.754 202.113 108.159C201.965 108.414 201.798 108.659 201.613 108.891Z" fill="black"/>
</g>
</g>
</g>
<g id="lock">
<path id="Vector_80" d="M74.9025 59C70.5706 59 66.336 60.2116 62.7341 62.4816C59.1323 64.7516 56.325 67.978 54.6672 71.7529C53.0095 75.5277 52.5757 79.6815 53.4209 83.6888C54.266 87.6962 56.352 91.3772 59.4151 94.2664C62.4782 97.1555 66.3809 99.123 70.6295 99.9202C74.8782 100.717 79.282 100.308 83.2842 98.7446C87.2863 97.181 90.707 94.5331 93.1137 91.1358C95.5204 87.7385 96.805 83.7444 96.805 79.6586C96.805 74.1796 94.4974 68.925 90.3899 65.0508C86.2824 61.1765 80.7114 59 74.9025 59V59ZM78.8294 80.1552V89.9357H71.0861V80.1552C70.0143 79.3901 69.2242 78.3268 68.8276 77.1154C68.4309 75.9039 68.4477 74.6056 68.8756 73.4037C69.3034 72.2017 70.1207 71.1569 71.212 70.4167C72.3033 69.6764 73.6136 69.2782 74.9578 69.2782C76.302 69.2782 77.6123 69.6764 78.7036 70.4167C79.7949 71.1569 80.6122 72.2017 81.04 73.4037C81.4679 74.6056 81.4846 75.9039 81.088 77.1154C80.6913 78.3268 79.9013 79.3901 78.8294 80.1552V80.1552Z" fill="black"/>
<path id="Vector_81" d="M75.0353 64C71.666 64 68.3724 64.9424 65.571 66.7079C62.7696 68.4735 60.5861 70.9829 59.2967 73.9189C58.0074 76.8549 57.67 80.0856 58.3273 83.2024C58.9846 86.3193 60.6071 89.1823 62.9895 91.4294C65.3719 93.6765 68.4073 95.2068 71.7119 95.8268C75.0164 96.4468 78.4416 96.1286 81.5544 94.9125C84.6672 93.6963 87.3277 91.6369 89.1996 88.9945C91.0714 86.3522 92.0705 83.2457 92.0705 80.0678C92.0705 77.9577 91.6299 75.8683 90.7738 73.9189C89.9177 71.9695 88.6629 70.1982 87.081 68.7061C85.4991 67.2141 83.6212 66.0306 81.5544 65.2231C79.4876 64.4156 77.2724 64 75.0353 64V64ZM78.0905 80.4538V88.062H72.0685V80.4538C71.2351 79.8588 70.6209 79.032 70.3126 78.09C70.0043 77.1481 70.0174 76.1385 70.3501 75.204C70.6829 74.2695 71.3184 73.4571 72.1669 72.8815C73.0155 72.306 74.0343 71.9964 75.0795 71.9964C76.1247 71.9964 77.1435 72.306 77.9921 72.8815C78.8407 73.4571 79.4762 74.2695 79.8089 75.204C80.1416 76.1385 80.1547 77.1481 79.8464 78.09C79.5381 79.032 78.9239 79.8588 78.0905 80.4538V80.4538Z" fill="#1E1D20"/>
</g>
</g>
<defs>
<linearGradient id="paint0_linear" x1="187" y1="16" x2="88" y2="158" gradientUnits="userSpaceOnUse">
<stop stop-color="#382FCB"/>
<stop offset="1" stop-color="#267799" stop-opacity="0.75"/>
</linearGradient>
<linearGradient id="paint1_linear" x1="150" y1="85" x2="123.663" y2="145.493" gradientUnits="userSpaceOnUse">
<stop stop-color="#0D0C0C"/>
<stop offset="1"/>
</linearGradient>
<linearGradient id="paint2_linear" x1="129.5" y1="51.5" x2="130" y2="142.5" gradientUnits="userSpaceOnUse">
<stop stop-color="#2D2D30"/>
<stop offset="1" stop-color="#585761"/>
</linearGradient>
<radialGradient id="paint3_radial" cx="0" cy="0" r="1" gradientUnits="userSpaceOnUse" gradientTransform="translate(177.735 92.8446) rotate(90) scale(3.54742 7.63268)">
<stop stop-color="#403F4D"/>
<stop offset="1" stop-color="#2A2A2E"/>
</radialGradient>
<linearGradient id="paint4_linear" x1="170.043" y1="127.795" x2="203.892" y2="127.795" gradientUnits="userSpaceOnUse">
<stop stop-color="#808080" stop-opacity="0.25"/>
<stop offset="0.54" stop-color="#808080" stop-opacity="0.12"/>
<stop offset="1" stop-color="#808080" stop-opacity="0.1"/>
</linearGradient>
<clipPath id="clip0">
<rect width="258" height="168" fill="white"/>
</clipPath>
</defs>
</svg>
