<svg width="443" height="404" viewBox="0 0 443 404" fill="none" xmlns="http://www.w3.org/2000/svg">
<g id="add friend">
<path id="Vector" d="M319.75 231.28C319.058 231.936 318.425 232.652 317.86 233.42C312.282 240.235 305.222 245.686 297.218 249.359C289.213 253.032 280.476 254.828 271.672 254.612C262.869 254.396 254.23 252.173 246.416 248.112C238.601 244.052 231.817 238.26 226.58 231.18C209.06 231.622 192.405 238.894 180.171 251.442C167.936 263.991 161.089 280.824 161.09 298.35V403.58H382.81V298.35C382.808 281.245 376.283 264.785 364.567 252.323C352.85 239.861 336.822 232.335 319.75 231.28V231.28Z" fill="#FF5677"/>
<path id="Vector_2" d="M331.67 119.2V149.06C331.67 164.899 325.378 180.089 314.178 191.288C302.979 202.488 287.789 208.78 271.95 208.78C256.111 208.78 240.921 202.488 229.722 191.288C218.522 180.089 212.23 164.899 212.23 149.06V119.2C212.23 103.361 218.522 88.1712 229.722 76.9716C240.921 65.7719 256.111 59.48 271.95 59.48C287.789 59.48 302.979 65.7719 314.178 76.9716C325.378 88.1712 331.67 103.361 331.67 119.2V119.2Z" fill="#FFE1CA"/>
<path id="Vector_3" d="M173.83 258.98C165.526 270.425 161.065 284.209 161.09 298.35V385.54H0V306.73C0.00232729 291.389 5.99745 276.655 16.7071 265.671C27.4168 254.687 41.9938 248.321 57.33 247.93C61.9123 254.128 67.8496 259.199 74.6891 262.754C81.5286 266.309 89.0897 268.256 96.7957 268.445C104.502 268.634 112.149 267.06 119.155 263.845C126.16 260.629 132.339 255.856 137.22 249.89C137.718 249.22 138.273 248.594 138.88 248.02C150.31 248.71 165 252.67 173.83 258.98Z" fill="#8F67FF"/>
<path id="Vector_4" d="M149.31 149.92V176.05C149.31 189.913 143.803 203.208 134 213.01C124.198 222.813 110.903 228.32 97.04 228.32C83.1771 228.32 69.8821 222.813 60.0795 213.01C50.277 203.208 44.77 189.913 44.77 176.05V149.92C44.77 136.057 50.277 122.762 60.0795 112.96C69.8821 103.157 83.1771 97.65 97.04 97.65C110.903 97.65 124.198 103.157 134 112.96C143.803 122.762 149.31 136.057 149.31 149.92V149.92Z" fill="#FFD8B7"/>
<path id="Vector_5" d="M344.147 237.506C336.482 233.903 328.202 231.79 319.747 231.28C319.055 231.936 318.422 232.652 317.857 233.42C310.208 242.801 299.795 249.532 288.1 252.654C292.985 253.959 298.018 254.623 303.074 254.63C310.714 254.642 318.28 253.134 325.331 250.195C332.382 247.255 338.779 242.942 344.147 237.506V237.506Z" fill="#FF2953"/>
<path id="Vector_6" d="M203.83 258.98C210.853 249.277 220.335 241.621 231.3 236.8C229.61 235.027 228.033 233.15 226.576 231.181C209.056 231.623 192.401 238.895 180.167 251.443C167.932 263.992 161.085 280.825 161.086 298.351V403.58H191.086V298.35C191.063 284.209 195.524 270.425 203.83 258.98V258.98Z" fill="#FF2953"/>
<path id="Vector_7" d="M271.95 208.78C277.01 208.784 282.051 208.145 286.95 206.88C274.147 203.553 262.81 196.071 254.717 185.607C246.624 175.144 242.232 162.29 242.23 149.062V119.2C242.232 105.971 246.624 93.1174 254.718 82.6536C262.811 72.1898 274.149 64.7079 286.952 61.381C278.123 59.0995 268.89 58.8684 259.958 60.7053C251.026 62.5422 242.633 66.3984 235.422 71.9788C228.21 77.5591 222.371 84.7157 218.351 92.9005C214.331 101.085 212.237 110.081 212.23 119.2V149.06C212.231 164.898 218.523 180.088 229.722 191.288C240.922 202.487 256.112 208.779 271.95 208.78V208.78Z" fill="#F4CDB0"/>
<path id="Vector_8" d="M62.663 254.042C60.7271 252.148 58.9439 250.105 57.33 247.93C41.9938 248.321 27.4168 254.687 16.7071 265.671C5.99745 276.655 0.00232729 291.389 0 306.73V385.54H30V306.73C29.9995 295.778 33.0568 285.043 38.8275 275.734C44.5983 266.425 52.8533 258.913 62.663 254.042V254.042Z" fill="#7A48FF"/>
<path id="Vector_9" d="M163.789 253.655C155.825 250.509 147.423 248.608 138.88 248.02C138.273 248.594 137.718 249.22 137.22 249.89C130.939 257.593 122.519 263.265 113.02 266.19C117.878 267.692 122.935 268.459 128.02 268.463C134.664 268.474 141.244 267.172 147.383 264.63C153.522 262.089 159.097 258.359 163.789 253.655V253.655Z" fill="#7A48FF"/>
<path id="Vector_10" d="M97.04 228.32C103.904 228.32 110.701 226.969 117.043 224.342C123.385 221.715 129.148 217.865 134.001 213.011C138.855 208.158 142.705 202.395 145.332 196.053C147.959 189.711 149.31 182.914 149.31 176.05V149.92C149.31 136.057 143.803 122.762 134 112.96C124.198 103.157 110.903 97.65 97.04 97.65C83.1771 97.65 69.8821 103.157 60.0795 112.96C50.277 122.762 44.77 136.057 44.77 149.92V176.05C44.7696 182.914 46.1213 189.711 48.748 196.053C51.3747 202.395 55.2249 208.158 60.0787 213.011C64.9325 217.865 70.6948 221.715 77.0367 224.342C83.3785 226.969 90.1757 228.32 97.04 228.32V228.32Z" fill="#FFE1CA"/>
<path id="Vector_11" d="M74.77 176.05V149.92C74.772 138.674 78.399 127.728 85.113 118.706C91.8269 109.684 101.27 103.066 112.042 99.835C104.237 97.4991 95.9937 97.0196 87.9702 98.4348C79.9468 99.8501 72.3652 103.121 65.8302 107.986C59.2952 112.852 53.9878 119.177 50.3312 126.458C46.6747 133.738 44.7703 141.773 44.77 149.92V176.05C44.7715 184.196 46.6768 192.23 50.3337 199.509C53.9907 206.788 59.2982 213.112 65.8328 217.977C72.3675 222.841 79.9484 226.111 87.971 227.526C95.9935 228.94 104.236 228.461 112.04 226.125C101.269 222.896 91.8254 216.281 85.1116 207.26C78.3978 198.24 74.7712 187.295 74.77 176.05V176.05Z" fill="#F4CDB0"/>
<path id="Vector_12" d="M436.133 43.067H399.067V6C399.067 4.4087 398.435 2.88257 397.31 1.75735C396.184 0.632136 394.658 0 393.067 0C391.476 0 389.95 0.632136 388.824 1.75735C387.699 2.88257 387.067 4.4087 387.067 6V43.067H350C348.409 43.067 346.883 43.6991 345.757 44.8243C344.632 45.9496 344 47.4757 344 49.067C344 50.6583 344.632 52.1844 345.757 53.3096C346.883 54.4348 348.409 55.067 350 55.067H387.067V92.133C387.067 93.7243 387.699 95.2504 388.824 96.3756C389.95 97.5009 391.476 98.133 393.067 98.133C394.658 98.133 396.184 97.5009 397.31 96.3756C398.435 95.2504 399.067 93.7243 399.067 92.133V55.067H436.133C437.724 55.067 439.25 54.4348 440.376 53.3096C441.501 52.1844 442.133 50.6583 442.133 49.067C442.133 47.4757 441.501 45.9496 440.376 44.8243C439.25 43.6991 437.724 43.067 436.133 43.067V43.067Z" fill="url(#paint0_linear)"/>
<g id="Group">
<path id="Vector_13" d="M194.3 297.333C192.709 297.333 191.183 296.701 190.057 295.576C188.932 294.45 188.3 292.924 188.3 291.333V285.033C188.3 283.442 188.932 281.916 190.057 280.79C191.183 279.665 192.709 279.033 194.3 279.033C195.891 279.033 197.417 279.665 198.543 280.79C199.668 281.916 200.3 283.442 200.3 285.033V291.333C200.3 292.924 199.668 294.45 198.543 295.576C197.417 296.701 195.891 297.333 194.3 297.333V297.333Z" fill="#F4F8FC"/>
<path id="Vector_14" d="M194.3 379.333C192.709 379.333 191.183 378.701 190.057 377.576C188.932 376.45 188.3 374.924 188.3 373.333V314.333C188.3 312.742 188.932 311.216 190.057 310.09C191.183 308.965 192.709 308.333 194.3 308.333C195.891 308.333 197.417 308.965 198.543 310.09C199.668 311.216 200.3 312.742 200.3 314.333V373.333C200.3 374.924 199.668 376.45 198.543 377.576C197.417 378.701 195.891 379.333 194.3 379.333Z" fill="#F4F8FC"/>
</g>
</g>
<defs>
<linearGradient id="paint0_linear" x1="393.066" y1="0" x2="393.066" y2="98.133" gradientUnits="userSpaceOnUse">
<stop stop-color="#5562D8"/>
<stop offset="1" stop-color="#D555D8"/>
</linearGradient>
</defs>
</svg>
