<svg width="41.6" height="47.9" viewBox="0 0 416 479" fill="none" xmlns="http://www.w3.org/2000/svg">
<path d="M336 151.683C336 153.801 335.157 155.831 333.657 157.328C332.157 158.826 330.122 159.667 328 159.667H136C133.878 159.667 131.843 158.826 130.343 157.328C128.843 155.831 128 153.801 128 151.683C128 149.566 128.843 147.535 130.343 146.038C131.843 144.541 133.878 143.7 136 143.7H328C330.122 143.7 332.157 144.541 333.657 146.038C335.157 147.535 336 149.566 336 151.683ZM56 207.567H216C218.122 207.567 220.157 206.726 221.657 205.228C223.157 203.731 224 201.701 224 199.583C224 197.466 223.157 195.435 221.657 193.938C220.157 192.441 218.122 191.6 216 191.6H56C53.8783 191.6 51.8434 192.441 50.3431 193.938C48.8429 195.435 48 197.466 48 199.583C48 201.701 48.8429 203.731 50.3431 205.228C51.8434 206.726 53.8783 207.567 56 207.567ZM280 239.5H184C181.878 239.5 179.843 240.341 178.343 241.838C176.843 243.335 176 245.366 176 247.483C176 249.601 176.843 251.631 178.343 253.128C179.843 254.626 181.878 255.467 184 255.467H280C282.122 255.467 284.157 254.626 285.657 253.128C287.157 251.631 288 249.601 288 247.483C288 245.366 287.157 243.335 285.657 241.838C284.157 240.341 282.122 239.5 280 239.5ZM264 287.4H56C53.8783 287.4 51.8434 288.241 50.3431 289.738C48.8429 291.235 48 293.266 48 295.383C48 297.501 48.8429 299.531 50.3431 301.028C51.8434 302.526 53.8783 303.367 56 303.367H264C266.122 303.367 268.157 302.526 269.657 301.028C271.157 299.531 272 297.501 272 295.383C272 293.266 271.157 291.235 269.657 289.738C268.157 288.241 266.122 287.4 264 287.4ZM56 159.667H104C106.122 159.667 108.157 158.826 109.657 157.328C111.157 155.831 112 153.801 112 151.683C112 149.566 111.157 147.535 109.657 146.038C108.157 144.541 106.122 143.7 104 143.7H56C53.8783 143.7 51.8434 144.541 50.3431 146.038C48.8429 147.535 48 149.566 48 151.683C48 153.801 48.8429 155.831 50.3431 157.328C51.8434 158.826 53.8783 159.667 56 159.667ZM328 191.6H248C245.878 191.6 243.843 192.441 242.343 193.938C240.843 195.435 240 197.466 240 199.583C240 201.701 240.843 203.731 242.343 205.228C243.843 206.726 245.878 207.567 248 207.567H328C330.122 207.567 332.157 206.726 333.657 205.228C335.157 203.731 336 201.701 336 199.583C336 197.466 335.157 195.435 333.657 193.938C332.157 192.441 330.122 191.6 328 191.6ZM56 255.467H152C154.122 255.467 156.157 254.626 157.657 253.128C159.157 251.631 160 249.601 160 247.483C160 245.366 159.157 243.335 157.657 241.838C156.157 240.341 154.122 239.5 152 239.5H56C53.8783 239.5 51.8434 240.341 50.3431 241.838C48.8429 243.335 48 245.366 48 247.483C48 249.601 48.8429 251.631 50.3431 253.128C51.8434 254.626 53.8783 255.467 56 255.467ZM264 383.2H184C181.878 383.2 179.843 384.041 178.343 385.538C176.843 387.035 176 389.066 176 391.183C176 393.301 176.843 395.331 178.343 396.828C179.843 398.326 181.878 399.167 184 399.167H264C266.122 399.167 268.157 398.326 269.657 396.828C271.157 395.331 272 393.301 272 391.183C272 389.066 271.157 387.035 269.657 385.538C268.157 384.041 266.122 383.2 264 383.2ZM152 383.2H56C53.8783 383.2 51.8434 384.041 50.3431 385.538C48.8429 387.035 48 389.066 48 391.183C48 393.301 48.8429 395.331 50.3431 396.828C51.8434 398.326 53.8783 399.167 56 399.167H152C154.122 399.167 156.157 398.326 157.657 396.828C159.157 395.331 160 393.301 160 391.183C160 389.066 159.157 387.035 157.657 385.538C156.157 384.041 154.122 383.2 152 383.2ZM56 351.267H120C122.122 351.267 124.157 350.426 125.657 348.928C127.157 347.431 128 345.401 128 343.283C128 341.166 127.157 339.135 125.657 337.638C124.157 336.141 122.122 335.3 120 335.3H56C53.8783 335.3 51.8434 336.141 50.3431 337.638C48.8429 339.135 48 341.166 48 343.283C48 345.401 48.8429 347.431 50.3431 348.928C51.8434 350.426 53.8783 351.267 56 351.267ZM56 111.767H152C154.122 111.767 156.157 110.926 157.657 109.428C159.157 107.931 160 105.901 160 103.783C160 101.666 159.157 99.6354 157.657 98.1383C156.157 96.6411 154.122 95.8 152 95.8H56C53.8783 95.8 51.8434 96.6411 50.3431 98.1383C48.8429 99.6354 48 101.666 48 103.783C48 105.901 48.8429 107.931 50.3431 109.428C51.8434 110.926 53.8783 111.767 56 111.767ZM264 335.3H152C149.878 335.3 147.843 336.141 146.343 337.638C144.843 339.135 144 341.166 144 343.283C144 345.401 144.843 347.431 146.343 348.928C147.843 350.426 149.878 351.267 152 351.267H264C266.122 351.267 268.157 350.426 269.657 348.928C271.157 347.431 272 345.401 272 343.283C272 341.166 271.157 339.135 269.657 337.638C268.157 336.141 266.122 335.3 264 335.3ZM352 311.35V407.15C352 409.267 352.843 411.298 354.343 412.795C355.843 414.292 357.878 415.133 360 415.133C362.122 415.133 364.157 414.292 365.657 412.795C367.157 411.298 368 409.267 368 407.15V279.417C368 273.065 365.471 266.973 360.971 262.481C356.47 257.99 350.365 255.467 344 255.467C337.635 255.467 331.53 257.99 327.029 262.481C322.529 266.973 320 273.065 320 279.417V423.117C320 433.703 324.214 443.856 331.716 451.342C339.217 458.828 349.391 463.033 360 463.033C370.609 463.033 380.783 458.828 388.284 451.342C395.786 443.856 400 433.703 400 423.117V311.35C400 309.233 400.843 307.202 402.343 305.705C403.843 304.208 405.878 303.367 408 303.367C410.122 303.367 412.157 304.208 413.657 305.705C415.157 307.202 416 309.233 416 311.35V423.117C415.983 437.933 410.078 452.137 399.579 462.613C389.081 473.09 374.847 478.983 360 479H40C29.395 478.988 19.2278 474.779 11.7289 467.296C4.23001 459.812 0.0119105 449.666 0 439.083V39.9167C0.0119105 29.3338 4.23001 19.1877 11.7289 11.7044C19.2278 4.2212 29.395 0.0118857 40 5.30019e-09H280C281.051 -3.81957e-05 282.091 0.206424 283.062 0.607599C284.032 1.00877 284.914 1.59681 285.657 2.33812L381.657 98.1381C382.4 98.8795 382.989 99.7596 383.391 100.728C383.793 101.697 384 102.735 384 103.783V407.15C384 413.502 381.471 419.594 376.971 424.085C372.47 428.577 366.365 431.1 360 431.1C353.635 431.1 347.53 428.577 343.029 424.085C338.529 419.594 336 413.502 336 407.15V311.35C336 309.233 336.843 307.202 338.343 305.705C339.843 304.208 341.878 303.367 344 303.367C346.122 303.367 348.157 304.208 349.657 305.705C351.157 307.202 352 309.233 352 311.35ZM288 71.85C288.007 78.1997 290.538 84.2874 295.037 88.7773C299.537 93.2673 305.637 95.7929 312 95.8H356.687L288 27.2561V71.85ZM368 247.505V111.767H312C301.395 111.755 291.228 107.545 283.729 100.062C276.23 92.579 272.012 82.4329 272 71.85V15.9667H40C33.6371 15.9741 27.5369 18.4997 23.0376 22.9896C18.5384 27.4795 16.0074 33.567 16 39.9167V439.083C16.0074 445.433 18.5384 451.52 23.0376 456.01C27.5369 460.5 33.6371 463.026 40 463.033H320.862C315.523 457.841 311.28 451.633 308.383 444.778C305.487 437.922 303.997 430.557 304 423.117V279.417C303.996 272.002 306.062 264.733 309.968 258.425C313.873 252.118 319.463 247.021 326.109 243.707C332.756 240.393 340.196 238.993 347.596 239.664C354.995 240.335 362.061 243.05 368 247.505Z" fill="url(#paint0_linear)"/>
<defs>
<linearGradient id="paint0_linear" x1="208" y1="479" x2="52" y2="189" gradientUnits="userSpaceOnUse">
<stop stop-color="#4FA6F6"/>
<stop offset="1" stop-color="#5d5af1"/>
</linearGradient>
</defs>
</svg>
