<svg width="560" height="554" viewBox="0 0 560 554" fill="none" xmlns="http://www.w3.org/2000/svg">
<g id="female avatar">
<path id="Vector" d="M558.5 277V277.002C558.544 312.383 551.679 347.439 538.284 380.245C538.262 380.293 538.245 380.336 538.233 380.364L538.233 380.364L538.219 380.397C538.212 380.413 538.208 380.423 538.204 380.432L538.072 380.726V380.759C529.078 402.629 517.266 423.259 502.93 442.137L502.929 442.139C500.152 445.807 497.288 449.398 494.336 452.914L494.335 452.915C493.257 454.201 492.161 455.481 491.064 456.746C485.42 463.225 479.482 469.434 473.251 475.37L473.249 475.372C471.8 476.757 470.333 478.126 468.851 479.479L468.847 479.482C468.677 479.638 468.507 479.793 468.332 479.951L468.33 479.953C468.159 480.109 467.983 480.268 467.807 480.429C460.55 486.989 452.947 493.164 445.03 498.928L445.027 498.93C439.713 502.818 434.26 506.51 428.666 510.006L428.66 510.009C427.435 510.782 426.202 511.541 424.961 512.287L424.957 512.289C422.799 513.593 420.621 514.867 418.424 516.111L418.422 516.112C415.556 517.742 412.654 519.32 409.716 520.847L409.706 520.852C408.528 521.475 407.339 522.075 406.136 522.683L406.132 522.685C404.391 523.57 402.639 524.425 400.868 525.264L400.86 525.268C400.551 525.417 400.259 525.557 399.97 525.688L399.956 525.695L399.941 525.702C398.797 526.252 397.634 526.786 396.458 527.327L396.456 527.328C396.455 527.329 396.454 527.329 396.453 527.329C381.216 534.282 365.37 539.844 349.111 543.949L349.099 543.952L349.088 543.955C349.069 543.96 349.048 543.965 349.002 543.976C348.98 543.981 348.952 543.988 348.919 543.996C348.893 544.002 348.864 544.01 348.833 544.018C347.777 544.285 346.712 544.544 345.646 544.795L345.634 544.798C344.842 544.992 344.041 545.178 343.238 545.357L343.17 545.372L343.103 545.393C343.075 545.402 343.046 545.409 343.018 545.414L342.968 545.422L342.919 545.433C341.263 545.816 339.613 546.182 337.951 546.514L337.939 546.516C336.994 546.713 336.056 546.909 335.119 547.096L335.108 547.098L335.097 547.1C334.591 547.209 334.077 547.305 333.545 547.404L333.414 547.428L333.404 547.43C333.062 547.496 332.721 547.56 332.376 547.626L332.334 547.633L332.305 547.639C331.957 547.705 331.605 547.771 331.251 547.84L331.242 547.841L331.232 547.843C330.87 547.918 330.502 547.979 330.095 548.044L330.082 548.047L330.069 548.049C329.156 548.213 328.25 548.376 327.354 548.531C325.82 548.792 324.275 549.044 322.741 549.271L322.735 549.272C321.614 549.443 320.503 549.606 319.384 549.76L319.379 549.761C318.065 549.948 316.749 550.119 315.422 550.282L315.397 550.285L315.372 550.289C315.045 550.341 314.714 550.378 314.344 550.42L314.331 550.421L312.916 550.593C311.971 550.707 311.028 550.812 310.076 550.91L310.066 550.911L310.057 550.912C309.573 550.968 309.095 551.016 308.598 551.065L308.591 551.066C307.655 551.163 306.719 551.253 305.783 551.334L305.772 551.335C304.568 551.448 303.361 551.546 302.136 551.644C300.65 551.758 299.176 551.864 297.688 551.954C296.727 552.011 295.772 552.068 294.811 552.117L294.807 552.117C292.355 552.247 289.9 552.337 287.425 552.402C286.2 552.435 284.967 552.459 283.734 552.475H283.72H283.71L283.7 552.476C282.472 552.492 281.236 552.5 280 552.5C267.474 552.505 254.961 551.677 242.548 550.022L242.546 550.022C233.441 548.815 224.482 547.179 215.669 545.115L215.663 545.113C215.303 545.03 214.967 544.953 214.643 544.869L214.622 544.864L214.601 544.859C213.723 544.658 212.851 544.44 211.962 544.218C211.326 544.059 210.695 543.895 210.053 543.727L209.624 543.616L209.62 543.615C189.451 538.422 169.94 530.989 151.46 521.457C151.405 521.427 151.35 521.399 151.308 521.377C151.258 521.352 151.223 521.333 151.192 521.317L151.181 521.31L151.169 521.305C150.62 521.021 150.109 520.76 149.595 520.482L149.583 520.475L149.572 520.47C148.412 519.867 147.258 519.254 146.109 518.63C139.559 515.068 133.176 511.259 126.961 507.203L126.957 507.2C125.359 506.166 123.779 505.115 122.215 504.048L122.214 504.048C121.714 503.707 121.222 503.366 120.724 503.022L120.723 503.021C120.2 502.659 119.683 502.302 119.175 501.945L119.174 501.945C117.814 500.991 116.462 500.026 115.119 499.05C109.557 495.007 104.161 490.766 98.9295 486.327L98.9286 486.326C80.383 470.614 63.9956 452.568 50.1833 432.65L50.1829 432.65C45.3632 425.705 40.8646 418.538 36.6872 411.148C13.539 370.151 1.42336 323.96 1.50037 277.002V277C1.50037 124.863 126.176 1.5 280 1.5C433.825 1.5 558.5 124.863 558.5 277Z" fill="url(#paint0_linear)" stroke="black" stroke-width="3"/>
<g id="stem">
<path id="Vector_2" opacity="0.2" d="M325.024 546.321C325.919 546.116 326.805 545.895 327.692 545.674C328.479 545.477 329.257 545.272 330.044 545.067C330.086 543.436 330.144 541.642 330.202 539.699C330.69 524.489 331.842 500.001 334.559 470.498C334.708 468.917 334.857 467.324 335.006 465.721C335.976 455.722 337.111 445.208 338.469 434.308C338.511 433.948 338.56 433.595 338.602 433.235C339.703 424.4 340.954 415.328 342.363 406.084C343.348 399.618 344.414 393.081 345.56 386.472C345.643 386.013 345.726 385.546 345.809 385.087C346.14 383.178 346.48 381.277 346.828 379.359C347.797 374.024 348.832 368.656 349.918 363.288C353.737 344.406 358.284 325.409 363.711 306.929C369.222 287.763 376.011 268.98 384.031 250.701C390.252 236.502 397.661 222.842 406.183 209.864C406.307 209.676 406.431 209.496 406.556 209.307C417.449 193.072 429.9 179.296 444.115 168.995L441.166 165.012C427.547 174.887 415.055 188.027 403.689 204.431C403.631 204.513 403.582 204.587 403.524 204.669C394.977 217.207 387.517 230.437 381.223 244.219C372.796 262.653 365.687 281.65 359.95 301.07C354.515 319.115 349.641 338.667 345.328 359.723C343.812 367.14 342.365 374.739 340.987 382.522C340.755 383.85 340.524 385.178 340.292 386.513C340.292 386.53 340.283 386.554 340.283 386.571C339.927 388.62 339.587 390.668 339.24 392.742C338.378 397.962 337.566 403.142 336.804 408.28C335.628 416.197 334.565 423.977 333.615 431.62C333.3 434.144 332.996 436.649 332.703 439.135C332.289 442.643 331.897 446.104 331.527 449.519C331.005 454.272 330.527 458.924 330.094 463.475L329.97 464.729C329.903 465.45 329.837 466.171 329.771 466.884C326.408 502.771 325.355 531.758 325.024 546.321Z" fill="black"/>
<path id="Vector_3" opacity="0.2" d="M388.529 522.784C388.621 522.735 388.72 522.686 388.811 522.637C390.518 521.76 392.208 520.867 393.898 519.949C394.453 513.409 395.198 506.222 396.176 498.666C396.383 497.108 396.59 495.527 396.822 493.937C396.938 493.085 397.062 492.224 397.186 491.355C398.164 484.701 399.324 477.833 400.715 470.933C406.373 442.774 415.767 413.992 431.366 396.225C432.203 395.266 433.056 394.348 433.943 393.455C436.139 391.197 438.525 389.127 441.075 387.267L438.126 383.293C434.566 385.897 431.29 388.86 428.351 392.135C427.315 393.274 426.305 394.46 425.319 395.692C410.963 413.566 401.999 440.028 396.416 466.229C394.958 473.064 393.732 479.89 392.688 486.537C392.423 488.274 392.169 489.995 391.926 491.7C390.311 502.96 389.242 513.597 388.529 522.784Z" fill="black"/>
</g>
<g id="buds">
<path id="Vector_4" d="M471.973 168.88C485.739 168.88 496.898 157.84 496.898 144.222C496.898 130.603 485.739 119.563 471.973 119.563C458.207 119.563 447.048 130.603 447.048 144.222C447.048 157.84 458.207 168.88 471.973 168.88Z" fill="white" fill-opacity="0.9"/>
<path id="Vector_5" d="M463.946 381.145C477.712 381.145 488.871 370.105 488.871 356.487C488.871 342.868 477.712 331.828 463.946 331.828C450.18 331.828 439.021 342.868 439.021 356.487C439.021 370.105 450.18 381.145 463.946 381.145Z" fill="white" fill-opacity="0.9"/>
</g>
<g id="leaf">
<path id="Vector_6" d="M455.856 255.669C427.413 265.958 398.831 259.355 398.831 259.355C398.831 259.355 416.365 236.07 444.808 225.781C473.251 215.492 501.833 222.094 501.833 222.094C501.833 222.094 484.299 245.38 455.856 255.669Z" fill="#1DCE00" fill-opacity="0.81"/>
<path id="Vector_7" d="M460.679 443.637C440.743 450.849 420.681 446.144 420.681 446.144C420.681 446.144 432.943 429.747 452.879 422.535C472.815 415.323 492.877 420.028 492.877 420.028C492.877 420.028 480.615 436.425 460.679 443.637Z" fill="#1DCE00" fill-opacity="0.81"/>
</g>
<g id="hair">
<path id="Vector_8" d="M258.199 400.626C333.327 400.626 394.23 340.375 394.23 266.052C394.23 191.729 333.327 131.478 258.199 131.478C183.071 131.478 122.168 191.729 122.168 266.052C122.168 340.375 183.071 400.626 258.199 400.626Z" fill="url(#paint1_linear)"/>
<path id="Vector_9" d="M133.745 208.786C156.124 208.786 174.265 190.839 174.265 168.701C174.265 146.562 156.124 128.615 133.745 128.615C111.367 128.615 93.2254 146.562 93.2254 168.701C93.2254 190.839 111.367 208.786 133.745 208.786Z" fill="black"/>
<path id="Vector_10" d="M382.653 197.333C405.032 197.333 423.173 179.386 423.173 157.248C423.173 135.109 405.032 117.162 382.653 117.162C360.275 117.162 342.133 135.109 342.133 157.248C342.133 179.386 360.275 197.333 382.653 197.333Z" fill="black"/>
<path id="Vector_11" d="M339.239 140.068C339.24 130.181 342.935 120.644 349.613 113.288C356.291 105.933 365.481 101.278 375.418 100.219C369.759 99.6078 364.034 100.183 358.614 101.906C353.195 103.63 348.204 106.464 343.966 110.224C339.728 113.983 336.338 118.584 334.018 123.726C331.697 128.868 330.498 134.437 330.498 140.068C330.498 145.699 331.697 151.268 334.018 156.41C336.338 161.552 339.728 166.153 343.966 169.912C348.204 173.672 353.195 176.506 358.614 178.23C364.034 179.953 369.759 180.528 375.418 179.917C365.481 178.858 356.291 174.203 349.613 166.848C342.935 159.492 339.24 149.955 339.239 140.068V140.068Z" fill="black"/>
<path id="Vector_12" d="M88.4705 201.125C81.4772 194.062 77.3691 184.692 76.9355 174.815C76.5019 164.937 79.7735 155.25 86.1215 147.614C81.6471 151.095 77.9642 155.469 75.3129 160.453C72.6616 165.436 71.1015 170.916 70.734 176.535C70.3666 182.155 71.2001 187.788 73.1803 193.068C75.1605 198.347 78.243 203.155 82.2268 207.177C86.2106 211.2 91.0065 214.347 96.3018 216.413C101.597 218.479 107.273 219.418 112.96 219.17C118.647 218.921 124.217 217.489 129.307 214.969C134.397 212.448 138.893 208.895 142.503 204.54C134.656 210.663 124.799 213.701 114.825 213.071C104.852 212.441 95.4658 208.186 88.4705 201.125V201.125Z" fill="black"/>
</g>
<g id="Face">
<path id="Vector_13" d="M121.37 505.287C122.944 506.361 124.534 507.418 126.141 508.459C132.39 512.537 138.808 516.367 145.393 519.949M121.37 505.287L145.393 519.949M121.37 505.287C120.864 504.943 120.368 504.599 119.871 504.255M121.37 505.287L119.871 504.255M145.393 519.949L145.871 519.07C145.871 519.07 145.871 519.07 145.871 519.07L145.393 519.949ZM457.403 469.867L457.322 469.542C457.202 469.342 457.081 469.143 456.959 468.945L455.934 469.188C456.119 469.486 456.302 469.785 456.483 470.086L457.403 469.867ZM457.403 469.867L457.502 469.843C457.444 469.745 457.386 469.648 457.328 469.551L457.403 469.867ZM119.87 504.255L119.865 504.251C119.345 503.892 118.825 503.532 118.313 503.173C116.946 502.214 115.587 501.244 114.237 500.264M119.87 504.255L114.237 500.264M119.87 504.255L119.871 504.255M119.87 504.255L119.871 504.255M114.237 500.264L115.111 500.75C115.255 500.492 115.4 500.234 115.548 499.978C115.307 499.804 115.066 499.629 114.825 499.455L114.237 500.264ZM398.115 482.917L398.115 482.917L438.011 473.443L438.242 474.416L398.115 482.917ZM398.115 482.917L392.672 484.211L392.672 484.212L332 498.61L331.999 498.611M398.115 482.917L331.999 498.611M331.999 498.611L326.848 499.84M331.999 498.611L326.848 499.84M326.848 499.84L326.847 499.84M326.848 499.84L326.847 499.84M326.847 499.84L179.947 534.714L326.847 499.84ZM404.824 435.92C404.824 435.92 404.825 435.92 404.825 435.92C404.826 435.92 404.827 435.92 404.828 435.92L404.973 434.931L404.824 435.92ZM196.63 448.117C222.327 441.053 227.977 417.836 227.488 397.175L196.63 448.117ZM311.231 383.168C311.222 383.257 311.212 383.346 311.203 383.435L311.31 383.678L312.225 383.276L311.231 383.168ZM302.81 364.304L303.063 364.881L303.693 364.902L303.726 363.903L302.81 364.304ZM222.71 362.228C222.608 361.89 222.505 361.553 222.4 361.217L221.341 361.182C221.447 361.518 221.551 361.855 221.654 362.193L222.71 362.228ZM151.228 521.9C151.225 521.898 151.223 521.897 151.22 521.896L150.761 522.784L151.236 521.904C151.234 521.903 151.231 521.901 151.228 521.9Z" fill="#FFCA84" stroke="black" stroke-width="2"/>
<path id="Vector_14" d="M192.832 345.639C196.483 344.628 197.454 336.78 195.001 328.112C192.548 319.443 187.6 313.235 183.949 314.247C180.298 315.258 179.326 323.105 181.779 331.774C184.233 340.442 189.181 346.65 192.832 345.639Z" fill="#FFCA84"/>
<path id="Vector_15" d="M360.002 316.777C360.562 307.792 357.947 300.322 354.163 300.091C350.379 299.861 346.858 306.957 346.298 315.942C345.739 324.927 348.353 332.398 352.137 332.628C355.922 332.859 359.443 325.762 360.002 316.777Z" fill="#FFCA84"/>
<path id="Vector_16" d="M269.397 395.141C314.894 395.141 351.777 358.653 351.777 313.643C351.777 268.633 314.894 232.146 269.397 232.146C223.9 232.146 187.017 268.633 187.017 313.643C187.017 358.653 223.9 395.141 269.397 395.141Z" fill="#FFCA84"/>
</g>
<g id="dress">
<path id="Vector_17" d="M469.862 480.587C469.514 480.906 469.166 481.218 468.818 481.537C461.521 488.134 453.875 494.344 445.913 500.141C440.57 504.05 435.086 507.762 429.461 511.278C428.226 512.057 426.984 512.821 425.733 513.573C423.563 514.884 421.373 516.165 419.164 517.416C416.281 519.055 413.362 520.643 410.408 522.178C409.215 522.809 408.014 523.415 406.812 524.022C405.056 524.915 403.292 525.776 401.511 526.62C401.204 526.767 400.898 526.915 400.591 527.054L397.087 524.177L438.242 474.416L446.518 464.409C446.518 464.409 449.823 464.409 457.403 469.867C461.592 472.952 465.551 476.332 469.249 479.98C469.448 480.185 469.655 480.382 469.862 480.587Z" fill="#DB85C3" fill-opacity="0.95"/>
<path id="Vector_18" d="M469.282 480.03C469.171 480.544 469.016 481.049 468.818 481.537C461.521 488.134 453.875 494.344 445.913 500.141C439.005 502.604 431.838 504.289 424.548 505.164C424.548 505.164 425.17 508.246 425.733 513.573C423.563 514.884 421.373 516.165 419.164 517.416C416.281 519.055 413.362 520.643 410.408 522.178C409.215 522.809 408.014 523.415 406.812 524.022C405.056 524.915 403.292 525.776 401.511 526.62C401.204 526.767 400.898 526.915 400.591 527.054C399.431 527.611 398.255 528.152 397.079 528.693C381.759 535.683 365.826 541.277 349.479 545.403C349.387 545.428 349.305 545.444 349.213 545.469C348.145 545.739 347.068 546.001 345.991 546.255C345.187 546.452 344.376 546.641 343.564 546.821C343.464 546.853 343.361 546.878 343.257 546.895C341.592 547.28 339.927 547.649 338.245 547.985C337.301 548.181 336.357 548.378 335.412 548.567C334.841 548.689 334.261 548.796 333.689 548.903C332.969 549.042 332.256 549.173 331.535 549.312C331.138 549.394 330.74 549.46 330.334 549.525C329.423 549.689 328.512 549.853 327.609 550.009C326.068 550.271 324.511 550.525 322.961 550.755C321.835 550.927 320.716 551.091 319.59 551.246C318.264 551.435 316.939 551.607 315.605 551.771C315.241 551.828 314.876 551.869 314.512 551.91C314.04 551.968 313.567 552.025 313.095 552.082C312.142 552.197 311.19 552.304 310.229 552.402C309.732 552.459 309.243 552.508 308.746 552.558C307.802 552.656 306.857 552.746 305.913 552.828C304.695 552.943 303.477 553.041 302.251 553.139C300.76 553.254 299.277 553.361 297.778 553.451C296.817 553.508 295.856 553.566 294.887 553.615C292.418 553.746 289.95 553.836 287.464 553.902C286.23 553.934 284.987 553.959 283.745 553.975H283.72C282.486 553.992 281.243 554 280 554C267.408 554.005 254.829 553.173 242.35 551.509C233.196 550.296 224.188 548.651 215.327 546.575C214.971 546.493 214.615 546.411 214.267 546.321C213.372 546.116 212.486 545.895 211.599 545.674C210.812 545.477 210.034 545.272 209.247 545.067C188.964 539.846 169.344 532.37 150.761 522.784C150.67 522.735 150.571 522.686 150.48 522.637C149.941 522.358 149.411 522.088 148.881 521.801C194.352 511.319 266.208 494.789 328.561 480.628C330.309 480.234 332.046 479.841 333.772 479.448C356.802 474.219 378.373 469.351 396.623 465.278C398.512 464.86 400.362 464.45 402.173 464.049C421.782 459.689 437.008 456.378 445.267 454.723C447.493 454.219 449.744 453.828 452.01 453.551L469.249 479.98L469.282 480.03Z" fill="#FE059A"/>
</g>
<path id="Vector_19" d="M258.199 203.06C210.245 203.06 171.371 225.494 171.371 253.167C171.371 265.549 179.185 276.866 192.083 285.609L208.799 273.627L204.253 292.398C206.139 293.262 208.065 294.099 210.074 294.873L235.045 266.052V301.458C242.702 302.672 250.445 303.279 258.199 303.274C306.153 303.274 345.028 280.841 345.028 253.167C345.028 225.494 306.153 203.06 258.199 203.06Z" fill="url(#paint2_linear)"/>
</g>
<defs>
<linearGradient id="paint0_linear" x1="123" y1="82" x2="280" y2="554" gradientUnits="userSpaceOnUse">
<stop stop-color="#8E00FE"/>
<stop offset="1" stop-color="#B511A4"/>
</linearGradient>
<linearGradient id="paint1_linear" x1="258.199" y1="131.478" x2="258.199" y2="400.626" gradientUnits="userSpaceOnUse">
<stop offset="0.447917"/>
<stop offset="1" stop-color="#212121" stop-opacity="0.82"/>
</linearGradient>
<linearGradient id="paint2_linear" x1="258.199" y1="203.06" x2="258.199" y2="303.274" gradientUnits="userSpaceOnUse">
<stop stop-color="#1A1A1A"/>
<stop offset="1"/>
</linearGradient>
</defs>
</svg>
