<svg width="512" height="457" viewBox="0 0 512 457" fill="none" xmlns="http://www.w3.org/2000/svg">
<g id="Friend-Request">
<g id="Group">
<g id="Group_2">
<path id="Vector" d="M425.857 329.728V377.219C425.857 380.577 423.127 383.307 419.758 383.307H223.591C220.222 383.307 217.492 380.577 217.492 377.219V329.728C217.492 286.028 252.92 250.6 296.631 250.6H346.719C360.585 250.6 373.617 254.164 384.949 260.438C409.343 273.913 425.857 299.894 425.857 329.728Z" fill="#8F67FF"/>
<path id="Vector_2" d="M425.857 329.728V377.219C425.857 380.577 423.127 383.307 419.758 383.307H325.177C374.574 348.188 384.526 295.484 384.948 260.437C409.343 273.913 425.857 299.894 425.857 329.728Z" fill="#7A48FF"/>
<path id="Vector_3" d="M381.847 162.695C381.847 195.929 354.908 222.868 321.674 222.868C309.528 222.868 298.237 219.273 288.78 213.081C272.349 202.346 261.501 183.783 261.501 162.695C261.501 129.472 288.44 102.532 321.674 102.532C327.649 102.532 333.418 103.397 338.857 105.025C363.716 112.411 381.847 135.436 381.847 162.695Z" fill="#8F67FF"/>
<path id="Vector_4" d="M381.847 162.695C381.847 195.929 354.908 222.868 321.674 222.868C309.528 222.868 298.237 219.273 288.78 213.081C337.229 185.06 341.525 135.457 338.857 105.025C363.716 112.411 381.847 135.436 381.847 162.695Z" fill="#7A48FF"/>
</g>
<g id="Group_3">
<path id="Vector_5" d="M290.079 381.814V447.921C290.079 452.608 286.278 456.41 281.59 456.41H8.489C3.802 456.41 0 452.608 0 447.921V381.814C0 320.971 49.325 271.646 110.168 271.646H179.911C197.3 271.646 213.752 275.674 228.371 282.865C264.922 300.78 290.079 338.361 290.079 381.814Z" fill="#FF5677"/>
<path id="Vector_6" d="M290.079 381.814V447.921C290.079 452.608 286.278 456.41 281.59 456.41H188.224C246.574 402.294 237.323 321.652 228.37 282.865C264.922 300.78 290.079 338.361 290.079 381.814Z" fill="#FF2953"/>
<path id="Vector_7" d="M228.803 162.592C228.803 208.858 191.304 246.356 145.039 246.356C128.381 246.356 112.846 241.494 99.804 233.108C76.625 218.211 61.265 192.199 61.265 162.592C61.265 116.326 98.774 78.818 145.039 78.818C164.685 78.818 182.754 85.586 197.043 96.918C216.39 112.257 228.803 135.982 228.803 162.592Z" fill="#FF5677"/>
<path id="Vector_8" d="M228.803 162.592C228.803 208.858 191.304 246.356 145.039 246.356C128.381 246.356 112.846 241.494 99.804 233.108C174.842 193.786 193.448 134.726 197.043 96.918C216.39 112.257 228.803 135.982 228.803 162.592Z" fill="#FF2953"/>
</g>
</g>
<g id="request recieved">
<path id="Vector_9" d="M512 21.072V147.324C512 158.966 502.57 168.396 490.928 168.396H364.676C353.034 168.396 343.604 158.966 343.604 147.324V21.072C343.604 9.43 353.034 0 364.676 0H490.928C502.57 0 512 9.43 512 21.072Z" fill="#FF5677"/>
<path id="*" d="M419.695 90.0878L398.461 83.7597L401.695 73.1425L422.93 81.0175L422.297 56.83H433.055L432.352 81.3691L453.234 73.6347L456.469 84.3222L434.883 90.7206L448.805 109.775L440.086 116.385L427.008 96.1347L414.352 115.893L405.562 109.494L419.695 90.0878Z" fill="#D8D2D2"/>
<path id="Vector_10" d="M512 21.072V147.324C512 158.966 502.57 168.396 490.928 168.396H389.689C484.93 135.889 478.674 40.068 475.219 0H490.928C502.57 0 512 9.43 512 21.072Z" fill="#FF2953"/>
</g>
</g>
</svg>
