<svg width="51.2" height="28.6" viewBox="0 0 512 286" fill="none" xmlns="http://www.w3.org/2000/svg">
<path d="M467 286H45C20.187 286 0 265.813 0 241V45C0 20.187 20.187 -3.05176e-05 45 -3.05176e-05H467C491.813 -3.05176e-05 512 20.187 512 45V241C512 265.813 491.813 286 467 286Z" fill="url(#paint0_linear)"/>
<path d="M233 143C233 151.284 239.716 158 248 158H264C272.284 158 279 151.284 279 143C279 134.716 272.284 128 264 128H248C239.716 128 233 134.716 233 143Z" fill="#F5F0EB"/>
<path d="M264 128H256V158H264C272.284 158 279 151.284 279 143C279 134.716 272.284 128 264 128Z" fill="#DAD0CB"/>
<path d="M239 79C239 70.716 232.284 64 224 64H200C191.716 64 185 70.716 185 79C185 87.284 191.716 94 200 94H224C232.284 94 239 87.284 239 79Z" fill="#F5F0EB"/>
<path d="M184 128H176C167.716 128 161 134.716 161 143C161 151.284 167.716 158 176 158H184C192.284 158 199 151.284 199 143C199 134.716 192.284 128 184 128Z" fill="#F5F0EB"/>
<path d="M176 192H160C151.716 192 145 198.716 145 207C145 215.284 151.716 222 160 222H176C184.284 222 191 215.284 191 207C191 198.716 184.284 192 176 192Z" fill="#F5F0EB"/>
<path d="M96 192H80C71.716 192 65 198.716 65 207C65 215.284 71.716 222 80 222H96C104.284 222 111 215.284 111 207C111 198.716 104.284 192 96 192Z" fill="#F5F0EB"/>
<path d="M80 94H104C112.284 94 119 87.284 119 79C119 70.716 112.284 64 104 64H80C71.716 64 65 70.716 65 79C65 87.284 71.716 94 80 94Z" fill="#FF712F"/>
<path d="M112 128H80C71.716 128 65 134.716 65 143C65 151.284 71.716 158 80 158H112C120.284 158 127 151.284 127 143C127 134.716 120.284 128 112 128Z" fill="#F5F0EB"/>
<path d="M360 192H240C231.716 192 225 198.716 225 207C225 215.284 231.716 222 240 222H360C368.284 222 375 215.284 375 207C375 198.716 368.284 192 360 192Z" fill="#3AAAFF"/>
<path d="M360 192H256V222H360C368.284 222 375 215.284 375 207C375 198.716 368.284 192 360 192Z" fill="#0095FF"/>
<path d="M432 192H424C415.716 192 409 198.716 409 207C409 215.284 415.716 222 424 222H432C440.284 222 447 215.284 447 207C447 198.716 440.284 192 432 192Z" fill="#DAD0CB"/>
<path d="M313 143C313 151.284 319.716 158 328 158H336C344.284 158 351 151.284 351 143C351 134.716 344.284 128 336 128H328C319.716 128 313 134.716 313 143Z" fill="#DAD0CB"/>
<path d="M288 94H312C320.284 94 327 87.284 327 79C327 70.716 320.284 64 312 64H288C279.716 64 273 70.716 273 79C273 87.284 279.716 94 288 94Z" fill="#DAD0CB"/>
<path d="M408 94H432C440.284 94 447 87.284 447 79C447 70.716 440.284 64 432 64H408C399.716 64 393 70.716 393 79C393 87.284 399.716 94 408 94Z" fill="#DAD0CB"/>
<path d="M432 128H400C391.716 128 385 134.716 385 143C385 151.284 391.716 158 400 158H432C440.284 158 447 151.284 447 143C447 134.716 440.284 128 432 128Z" fill="#DAD0CB"/>
<path d="M467 0H256V286H467C491.813 286 512 265.813 512 241V45C512 20.187 491.813 0 467 0Z" fill="white" fill-opacity="0.3"/>
<defs>
<linearGradient id="paint0_linear" x1="256" y1="-3.05176e-05" x2="256" y2="331" gradientUnits="userSpaceOnUse">
<stop stop-color="#404ECA"/>
<stop offset="1" stop-color="#404ECA" stop-opacity="0"/>
</linearGradient>
</defs>
</svg>
