<svg width="484" height="485" viewBox="0 0 484 485" fill="none" xmlns="http://www.w3.org/2000/svg">
<g id="Male Avtar">
<path id="background" d="M484 242.5C484.043 275.327 477.412 307.819 464.511 337.993L463.709 339.844C441.887 389.592 404.047 430.57 356.241 456.226C308.436 481.881 253.426 490.732 200.008 481.362C198.555 481.104 197.104 480.836 195.655 480.559C180.686 477.651 166.028 473.32 151.88 467.623C149.582 466.698 147.3 465.739 145.035 464.746C143.489 464.072 141.942 463.376 140.41 462.658C98.4964 443.192 63.0096 412.125 38.1324 373.119C13.2552 334.112 0.0246056 288.792 0 242.5C0 108.573 108.349 0 242 0C375.651 0 484 108.573 484 242.5Z" fill="url(#paint0_linear)"/>
<g id="plant stem">
<path id="Vector" opacity="0.2" d="M200.008 480.363C198.555 480.104 197.104 479.836 195.655 479.559C194.71 452.073 191.466 395.66 180.405 336.577C174.355 304.242 165.956 271.095 154.307 241.464C150.316 231.212 145.758 221.19 140.654 211.446C128.883 189.169 114.606 170.415 97.294 157.708L99.8429 154.222C114.241 164.797 127.181 179.643 138.663 198.761C142.107 204.486 145.415 210.594 148.587 217.085C151.987 224.03 155.231 231.403 158.317 239.204C160.286 244.169 162.188 249.306 164.023 254.615C172.013 277.667 178.806 303.969 184.4 333.521C185.638 340.05 186.817 346.739 187.937 353.588C196.607 406.658 199.22 455.725 200.008 480.363Z" fill="black"/>
<path id="Vector_2" opacity="0.2" d="M145.035 463.746C143.489 463.072 141.942 462.376 140.41 461.659C138.914 445.372 136.164 425.169 131.138 405.991C128.937 397.378 126.111 388.937 122.683 380.737C116.948 367.284 109.523 355.848 99.9217 348.796L102.471 345.316C112.523 352.691 120.277 364.35 126.27 377.989C133.021 393.357 137.525 411.243 140.525 428.333C142.751 441.024 144.155 453.286 145.035 463.746Z" fill="black"/>
</g>
<g id="buds">
<path id="Vector_3" d="M73.217 157.608C85.1147 157.608 94.7597 147.943 94.7597 136.021C94.7597 124.099 85.1147 114.434 73.217 114.434C61.3193 114.434 51.6743 124.099 51.6743 136.021C51.6743 147.943 61.3193 157.608 73.217 157.608Z" fill="white" fill-opacity="0.7"/>
<path id="Vector_4" d="M80.1545 343.436C92.0523 343.436 101.697 333.771 101.697 321.848C101.697 309.926 92.0523 300.261 80.1545 300.261C68.2568 300.261 58.6118 309.926 58.6118 321.848C58.6118 333.771 68.2568 343.436 80.1545 343.436Z" fill="white" fill-opacity="0.7"/>
</g>
<path id="Vector_5" d="M87.147 233.587C111.73 242.595 136.432 236.814 136.432 236.814C136.432 236.814 121.278 216.43 96.695 207.422C72.112 198.414 47.4095 204.195 47.4095 204.195C47.4095 204.195 62.564 224.58 87.147 233.587Z" fill="#41BC07" fill-opacity="0.8"/>
<path id="Vector_6" d="M82.9783 398.144C100.209 404.458 117.548 400.339 117.548 400.339C117.548 400.339 106.95 385.984 89.7196 379.67C72.4889 373.357 55.15 377.475 55.15 377.475C55.15 377.475 65.7476 391.831 82.9783 398.144Z" fill="#41BC07" fill-opacity="0.8"/>
<g id="Face">
<path id="Vector_7" d="M241.503 295.201C293.608 295.201 335.847 252.874 335.847 200.662C335.847 148.449 293.608 106.122 241.503 106.122C189.398 106.122 147.159 148.449 147.159 200.662C147.159 252.874 189.398 295.201 241.503 295.201Z" fill="#FFDBAC"/>
<path id="Vector_8" d="M204.65 273.043C204.65 273.043 216.443 329.176 216.443 335.084C216.443 340.993 272.46 367.582 272.46 367.582L322.58 358.719L340.27 305.541C340.27 305.541 310.787 261.226 310.787 243.5L204.65 273.043Z" fill="#FFDBAC"/>
</g>
<path id="hair" d="M159.688 124.494C159.688 124.494 189.642 59.4601 247.054 74.4681C304.466 89.476 336.916 111.988 339.412 134.5C341.908 157.012 338.164 190.779 338.164 190.779C338.164 190.779 331.923 144.505 291.985 154.51C252.046 164.516 189.642 157.012 189.642 157.012L179.657 247.059C179.657 247.059 168.425 230.801 155.944 240.806C143.463 250.811 119.749 144.505 159.688 124.494Z" fill="#1C1C21"/>
<g id="shirt">
<path id="Vector_9" d="M464.511 336.993L463.709 338.844C441.887 388.592 404.047 429.57 356.241 455.226C308.436 480.881 253.426 489.732 200.008 480.362C198.555 480.104 197.104 479.836 195.655 479.559C180.686 476.651 166.028 472.32 151.88 466.623C149.582 465.698 147.3 464.739 145.035 463.746C143.489 463.072 141.942 462.376 140.41 461.658C126.522 455.211 113.277 447.456 100.852 438.499L89.6689 405.991L95.9551 401.184L108.886 391.29L122.683 380.737L126.27 377.989L180.405 336.577L184.4 333.521L212.538 311.997L212.545 311.99C212.545 311.99 242.974 361.674 287.2 346.901C331.425 332.129 330.459 289.77 330.459 289.77L464.511 336.993Z" fill="#4572E4"/>
<path id="Vector_10" d="M151.88 466.623C149.582 465.698 147.3 464.739 145.035 463.746C143.489 463.072 141.942 462.376 140.41 461.658C117.441 450.985 96.2807 436.775 77.6977 419.544C84.2776 410.561 89.6689 405.991 89.6689 405.991H133.895L140.525 428.333L151.88 466.623Z" fill="#4572E4"/>
<path id="Vector_11" d="M425.77 332.129L463.709 338.844C453.556 362.022 439.844 383.463 423.07 402.389L425.77 332.129Z" fill="#4572E4"/>
</g>
</g>
<defs>
<linearGradient id="paint0_linear" x1="242" y1="0" x2="242" y2="485" gradientUnits="userSpaceOnUse">
<stop stop-color="#0029FF" stop-opacity="0.8"/>
<stop offset="1" stop-color="#0E00FB" stop-opacity="0.02"/>
</linearGradient>
</defs>
</svg>
